<svg xmlns="http://www.w3.org/2000/svg" viewBox="32 32 336 336" width="400" height="400"><rect x="32" y="32" width="336" height="336" fill="none" stroke="#1a1a1a" stroke-width="0.25"/>
  
  <path d="M32.00,32.00L32.84,32.84M32.84,32.84L32.84,32.84M128.00,32.00L127.99,32.84M166.40,32.00L166.41,32.84M224.00,32.00L224.00,32.84M300.80,32.00L300.77,32.84M300.80,32.00L300.80,32.00M320.00,32.00L320.03,32.84M32.84,32.84L33.68,33.68M33.68,33.68L33.68,33.68M127.99,32.84L127.95,33.68M166.41,32.84L166.43,33.68M224.00,32.84L224.01,33.68M300.77,32.84L300.68,33.68M320.03,32.84L320.12,33.55M320.14,33.68L320.12,33.55M33.68,33.68L34.52,34.52M34.52,34.52L34.52,34.52M127.95,33.68L127.88,34.52M166.43,33.68L166.47,34.52M224.01,33.68L224.03,34.52M300.68,33.68L300.53,34.52M320.14,33.68L320.30,34.52M34.52,34.52L35.36,35.36M35.36,35.36L35.36,35.36M127.88,34.52L127.79,35.36M166.47,34.52L166.52,35.36M224.03,34.52L224.06,35.36M300.53,34.52L300.31,35.36M320.30,34.52L320.53,35.36M35.36,35.36L36.20,36.20M36.20,36.20L36.20,36.20M127.76,35.58L127.67,36.20M127.79,35.36L127.76,35.58M166.52,35.36L166.58,36.20M224.06,35.36L224.09,36.20M300.31,35.36L300.04,36.20M320.53,35.36L320.82,36.20M36.20,36.20L37.04,37.04M37.04,37.04L37.04,37.04M127.67,36.20L127.53,37.04M166.58,36.20L166.66,37.04M224.09,36.20L224.13,37.04M299.96,36.41L299.73,37.04M300.04,36.20L299.96,36.41M320.82,36.20L320.96,36.53M321.16,37.04L320.96,36.53M37.04,37.04L37.88,37.88M37.88,37.88L37.88,37.88M127.53,37.04L127.37,37.88M166.66,37.04L166.76,37.88M224.13,37.04L224.18,37.88M299.73,37.04L299.37,37.88M321.16,37.04L321.55,37.88M37.88,37.88L38.72,38.72M38.72,38.72L38.72,38.72M127.37,37.88L127.17,38.72M166.76,37.88L166.86,38.72M224.18,37.88L224.24,38.72M299.12,38.38L298.96,38.72M299.37,37.88L299.12,38.38M321.55,37.88L321.80,38.34M321.99,38.72L321.80,38.34M38.72,38.72L39.56,39.56M39.56,39.56L39.56,39.56M127.17,38.72L126.96,39.56M166.86,38.72L166.98,39.56M224.24,38.72L224.30,39.56M298.96,38.72L298.53,39.56M321.99,38.72L322.47,39.56M39.56,39.56L40.40,40.40M40.40,40.40L40.40,40.40M126.92,39.68L126.72,40.40M126.96,39.56L126.92,39.68M166.98,39.56L167.12,40.40M224.30,39.56L224.36,40.22M224.38,40.40L224.36,40.22M298.28,40.00L298.06,40.40M298.53,39.56L298.28,40.00M322.47,39.56L322.64,39.82M322.99,40.40L322.64,39.82M40.40,40.40L41.24,41.24M41.24,41.24L41.24,41.24M126.72,40.40L126.46,41.24M167.12,40.40L167.24,41.12M167.26,41.24L167.24,41.12M224.38,40.40L224.45,41.24M298.06,40.40L297.57,41.24M322.99,40.40L323.48,41.15M323.54,41.24L323.48,41.15M41.24,41.24L42.08,42.08M42.08,42.08L42.08,42.08M126.46,41.24L126.17,42.08M167.26,41.24L167.41,42.08M224.45,41.24L224.54,42.08M297.44,41.44L297.05,42.08M297.57,41.24L297.44,41.44M323.54,41.24L324.11,42.08M42.08,42.08L42.92,42.92M42.92,42.92L42.92,42.92M126.08,42.32L125.87,42.92M126.17,42.08L126.08,42.32M167.41,42.08L167.58,42.92M224.54,42.08L224.63,42.92M296.60,42.77L296.51,42.92M297.05,42.08L296.60,42.77M324.11,42.08L324.32,42.36M324.72,42.92L324.32,42.36M42.92,42.92L43.76,43.76M43.76,43.76L43.76,43.76M125.87,42.92L125.54,43.76M167.58,42.92L167.75,43.76M224.63,42.92L224.73,43.76M296.51,42.92L295.95,43.76M324.72,42.92L325.16,43.51M325.34,43.76L325.16,43.51M43.76,43.76L44.60,44.60M44.60,44.60L44.60,44.60M125.24,44.48L125.19,44.60M125.54,43.76L125.24,44.48M167.75,43.76L167.93,44.60M224.73,43.76L224.84,44.60M295.76,44.04L295.38,44.60M295.95,43.76L295.76,44.04M325.34,43.76L325.99,44.60M44.60,44.60L45.44,45.44M45.44,45.44L45.44,45.44M125.19,44.60L124.82,45.44M167.93,44.60L168.08,45.25M168.12,45.44L168.08,45.25M224.84,44.60L224.96,45.44M294.92,45.26L294.80,45.44M295.38,44.60L294.92,45.26M325.99,44.60L326.00,44.61M326.65,45.44L326.00,44.61M45.44,45.44L46.28,46.28M46.28,46.28L46.28,46.28M124.82,45.44L124.44,46.28M168.12,45.44L168.32,46.28M224.96,45.44L225.08,46.28M294.80,45.44L294.20,46.28M326.65,45.44L326.84,45.66M327.34,46.28L326.84,45.66M46.28,46.28L47.12,47.12M47.12,47.12L47.12,47.12M124.40,46.36L124.04,47.12M124.44,46.28L124.40,46.36M168.32,46.28L168.52,47.12M225.08,46.28L225.20,47.07M225.21,47.12L225.20,47.07M294.08,46.45L293.60,47.12M294.20,46.28L294.08,46.45M327.34,46.28L327.68,46.69M328.03,47.12L327.68,46.69M47.12,47.12L47.96,47.96M47.96,47.96L47.96,47.96M124.04,47.12L123.61,47.96M168.52,47.12L168.73,47.96M225.21,47.12L225.34,47.96M293.24,47.61L292.99,47.96M293.60,47.12L293.24,47.61M328.03,47.12L328.52,47.69M328.74,47.96L328.52,47.69M47.96,47.96L48.80,48.80M48.80,48.80L48.80,48.80M123.56,48.06L123.18,48.80M123.61,47.96L123.56,48.06M168.73,47.96L168.92,48.69M168.95,48.80L168.92,48.69M225.34,47.96L225.49,48.80M292.40,48.76L292.37,48.80M292.99,47.96L292.40,48.76M328.74,47.96L329.36,48.67M329.47,48.80L329.36,48.67M48.80,48.80L49.64,49.64M49.64,49.64L49.64,49.64M122.72,49.64L122.72,49.64M123.18,48.80L122.72,49.64M168.95,48.80L169.17,49.64M225.49,48.80L225.64,49.64M292.37,48.80L291.75,49.64M329.47,48.80L330.20,49.63M330.21,49.64L330.20,49.63M49.64,49.64L50.48,50.48M50.48,50.48L50.48,50.48M122.72,49.64L122.25,50.48M169.17,49.64L169.39,50.48M225.64,49.64L225.79,50.48M291.56,49.89L291.12,50.48M291.75,49.64L291.56,49.89M330.21,49.64L330.95,50.48M50.48,50.48L51.32,51.32M51.32,51.32L51.32,51.32M121.88,51.12L121.76,51.32M122.25,50.48L121.88,51.12M169.39,50.48L169.62,51.32M225.79,50.48L225.96,51.32M290.72,51.01L290.49,51.32M291.12,50.48L290.72,51.01M330.95,50.48L331.04,50.58M331.71,51.32L331.04,50.58M51.32,51.32L52.16,52.16M52.16,52.16L52.16,52.16M121.76,51.32L121.27,52.16M169.62,51.32L169.76,51.85M169.84,52.16L169.76,51.85M225.96,51.32L226.04,51.73M226.13,52.16L226.04,51.73M289.88,52.13L289.86,52.16M290.49,51.32L289.88,52.13M331.71,51.32L331.88,51.51M332.47,52.16L331.88,51.51M52.16,52.16L53.00,53.00M53.00,53.00L53.00,53.00M121.04,52.53L120.75,53.00M121.27,52.16L121.04,52.53M169.84,52.16L170.08,53.00M226.13,52.16L226.30,53.00M289.86,52.16L289.23,53.00M332.47,52.16L332.72,52.43M333.25,53.00L332.72,52.43M53.00,53.00L53.84,53.84M53.84,53.84L53.84,53.84M120.75,53.00L120.22,53.84M170.08,53.00L170.31,53.84M226.30,53.00L226.49,53.84M289.04,53.25L288.60,53.84M289.23,53.00L289.04,53.25M333.25,53.00L333.56,53.33M334.03,53.84L333.56,53.33M53.84,53.84L54.68,54.68M54.68,54.68L54.68,54.68M120.20,53.88L119.69,54.68M120.22,53.84L120.20,53.88M170.31,53.84L170.54,54.68M226.49,53.84L226.68,54.68M288.20,54.36L287.96,54.68M288.60,53.84L288.20,54.36M334.03,53.84L334.40,54.23M334.82,54.68L334.40,54.23M54.68,54.68L55.52,55.52M55.52,55.52L55.52,55.52M119.36,55.17L119.13,55.52M119.69,54.68L119.36,55.17M170.54,54.68L170.60,54.89M170.77,55.52L170.60,54.89M226.68,54.68L226.87,55.52M287.36,55.48L287.33,55.52M287.96,54.68L287.36,55.48M334.82,54.68L335.24,55.12M335.62,55.52L335.24,55.12M55.52,55.52L56.36,56.36M56.36,56.36L56.36,56.36M119.13,55.52L118.57,56.36M170.77,55.52L171.01,56.36M226.87,55.52L226.88,55.56M227.07,56.36L226.88,55.56M287.33,55.52L286.70,56.36M335.62,55.52L336.08,56.00M336.43,56.36L336.08,56.00M56.36,56.36L57.20,57.20M57.20,57.20L57.20,57.20M118.52,56.43L117.99,57.20M118.57,56.36L118.52,56.43M171.01,56.36L171.24,57.20M227.07,56.36L227.28,57.20M286.52,56.60L286.07,57.20M286.70,56.36L286.52,56.60M336.43,56.36L336.92,56.87M337.24,57.20L336.92,56.87M57.20,57.20L58.04,58.04M58.04,58.04L58.04,58.04M117.68,57.65L117.41,58.04M117.99,57.20L117.68,57.65M171.24,57.20L171.44,57.94M171.47,58.04L171.44,57.94M227.28,57.20L227.49,58.04M285.68,57.72L285.45,58.04M286.07,57.20L285.68,57.72M337.24,57.20L337.76,57.73M338.06,58.04L337.76,57.73M58.04,58.04L58.88,58.88M58.88,58.88L58.88,58.88M116.84,58.84L116.81,58.88M117.41,58.04L116.84,58.84M171.47,58.04L171.70,58.88M227.49,58.04L227.70,58.88M284.84,58.86L284.82,58.88M285.45,58.04L284.84,58.86M338.06,58.04L338.60,58.59M338.89,58.88L338.60,58.59M58.88,58.88L59.72,59.72M59.72,59.72L59.72,59.72M116.81,58.88L116.20,59.72M171.70,58.88L171.92,59.72M227.70,58.88L227.72,58.94M227.93,59.72L227.72,58.94M284.82,58.88L284.21,59.72M338.89,58.88L339.44,59.44M339.72,59.72L339.44,59.44M59.72,59.72L60.56,60.56M60.56,60.56L60.56,60.56M116.00,60.00L115.59,60.56M116.20,59.72L116.00,60.00M171.92,59.72L172.15,60.56M227.93,59.72L228.15,60.56M284.00,60.00L283.59,60.56M284.21,59.72L284.00,60.00M339.72,59.72L340.28,60.28M340.56,60.56L340.28,60.28M60.56,60.56L61.40,61.40M61.40,61.40L61.40,61.40M115.16,61.14L114.96,61.40M115.59,60.56L115.16,61.14M172.15,60.56L172.28,61.05M172.37,61.40L172.28,61.05M228.15,60.56L228.38,61.40M283.16,61.15L282.98,61.40M283.59,60.56L283.16,61.15M340.56,60.56L341.12,61.11M341.41,61.40L341.12,61.11M61.40,61.40L62.24,62.24M62.24,62.24L62.24,62.24M114.96,61.40L114.33,62.24M172.37,61.40L172.59,62.24M228.38,61.40L228.56,62.04M228.62,62.24L228.56,62.04M282.98,61.40L282.38,62.24M341.41,61.40L341.96,61.94M342.27,62.24L341.96,61.94M62.24,62.24L63.08,63.08M63.08,63.08L63.08,63.08M114.32,62.25L113.68,63.08M114.33,62.24L114.32,62.25M172.59,62.24L172.81,63.08M228.62,62.24L228.85,63.08M282.32,62.32L281.78,63.08M282.38,62.24L282.32,62.32M342.27,62.24L342.80,62.76M343.13,63.08L342.80,62.76M63.08,63.08L63.92,63.92M63.92,63.92L63.92,63.92M113.48,63.34L113.03,63.92M113.68,63.08L113.48,63.34M172.81,63.08L173.02,63.92M228.85,63.08L229.09,63.92M281.48,63.51L281.19,63.92M281.78,63.08L281.48,63.51M343.13,63.08L343.64,63.57M344.00,63.92L343.64,63.57M63.92,63.92L64.76,64.76M64.76,64.76L64.76,64.76M112.64,64.42L112.37,64.76M113.03,63.92L112.64,64.42M173.02,63.92L173.12,64.34M173.22,64.76L173.12,64.34M229.09,63.92L229.34,64.76M280.64,64.71L280.60,64.76M281.19,63.92L280.64,64.71M344.00,63.92L344.48,64.38M344.88,64.76L344.48,64.38M64.76,64.76L65.60,65.60M65.60,65.60L65.60,65.60M111.80,65.48L111.70,65.60M112.37,64.76L111.80,65.48M173.22,64.76L173.43,65.60M229.34,64.76L229.40,64.97M229.58,65.60L229.40,64.97M280.60,64.76L280.03,65.60M344.88,64.76L345.32,65.18M345.77,65.60L345.32,65.18M65.60,65.60L66.44,66.44M66.44,66.44L66.44,66.44M111.70,65.60L111.03,66.44M173.43,65.60L173.62,66.44M229.58,65.60L229.83,66.44M279.80,65.93L279.46,66.44M280.03,65.60L279.80,65.93M345.77,65.60L346.16,65.97M346.67,66.44L346.16,65.97M66.44,66.44L67.28,67.28M67.28,67.28L67.28,67.28M110.96,66.52L110.34,67.28M111.03,66.44L110.96,66.52M173.62,66.44L173.82,67.28M229.83,66.44L230.08,67.28M278.96,67.19L278.90,67.28M279.46,66.44L278.96,67.19M346.67,66.44L347.00,66.75M347.57,67.28L347.00,66.75M67.28,67.28L68.12,68.12M68.12,68.12L68.12,68.12M110.12,67.55L109.65,68.12M110.34,67.28L110.12,67.55M173.82,67.28L173.96,67.92M174.00,68.12L173.96,67.92M230.08,67.28L230.24,67.81M230.33,68.12L230.24,67.81M278.90,67.28L278.35,68.12M347.57,67.28L347.84,67.53M348.49,68.12L347.84,67.53M68.12,68.12L68.96,68.96M68.96,68.96L68.96,68.96M109.28,68.57L108.95,68.96M109.65,68.12L109.28,68.57M174.00,68.12L174.19,68.96M230.33,68.12L230.58,68.96M278.12,68.47L277.81,68.96M278.35,68.12L278.12,68.47M348.49,68.12L348.68,68.29M349.42,68.96L348.68,68.29M68.96,68.96L69.80,69.80M69.80,69.80L69.80,69.80M108.44,69.57L108.25,69.80M108.95,68.96L108.44,69.57M174.19,68.96L174.36,69.80M230.58,68.96L230.84,69.80M277.28,69.80L277.28,69.80M277.81,68.96L277.28,69.80M349.42,68.96L349.52,69.05M350.36,69.79L349.52,69.05M350.37,69.80L350.36,69.79M69.80,69.80L70.64,70.64M70.64,70.64L70.64,70.64M107.60,70.57L107.54,70.64M108.25,69.80L107.60,70.57M174.36,69.80L174.54,70.64M230.84,69.80L231.08,70.62M231.08,70.64L231.08,70.62M277.28,69.80L276.76,70.64M350.37,69.80L351.20,70.53M351.33,70.64L351.20,70.53M70.64,70.64L71.48,71.48M71.48,71.48L71.48,71.48M107.54,70.64L106.82,71.48M174.54,70.64L174.70,71.48M231.08,70.64L231.33,71.48M276.44,71.17L276.25,71.48M276.76,70.64L276.44,71.17M351.33,70.64L352.04,71.26M352.31,71.48L352.04,71.26M71.48,71.48L72.32,72.32M72.32,72.32L72.32,72.32M106.76,71.55L106.09,72.32M106.82,71.48L106.76,71.55M174.70,71.48L174.80,72.01M174.86,72.32L174.80,72.01M231.33,71.48L231.58,72.32M276.25,71.48L275.76,72.32M352.31,71.48L352.88,71.97M353.31,72.32L352.88,71.97M72.32,72.32L73.16,73.16M73.16,73.16L73.16,73.16M105.92,72.52L105.36,73.16M106.09,72.32L105.92,72.52M174.86,72.32L175.01,73.16M231.58,72.32L231.82,73.16M275.60,72.60L275.28,73.16M275.76,72.32L275.60,72.60M353.31,72.32L353.72,72.66M354.34,73.16L353.72,72.66M73.16,73.16L74.00,74.00M74.00,74.00L74.00,74.00M105.08,73.49L104.62,74.00M105.36,73.16L105.08,73.49M175.01,73.16L175.16,74.00M231.82,73.16L231.92,73.50M232.07,74.00L231.92,73.50M275.28,73.16L274.81,74.00M354.34,73.16L354.56,73.35M355.39,74.00L354.56,73.35M74.00,74.00L74.84,74.84M74.84,74.84L74.84,74.84M104.24,74.44L103.88,74.84M104.62,74.00L104.24,74.44M175.16,74.00L175.30,74.84M232.07,74.00L232.30,74.84M274.76,74.10L274.36,74.84M274.81,74.00L274.76,74.10M355.39,74.00L355.40,74.01M356.24,74.66L355.40,74.01M356.49,74.84L356.24,74.66M74.84,74.84L75.68,75.68M75.68,75.68L75.68,75.68M103.40,75.39L103.13,75.68M103.88,74.84L103.40,75.39M175.30,74.84L175.43,75.68M232.30,74.84L232.53,75.68M274.36,74.84L273.93,75.68M356.49,74.84L357.08,75.28M357.64,75.68L357.08,75.28M75.68,75.68L76.52,76.52M76.52,76.52L76.52,76.52M102.56,76.33L102.38,76.52M103.13,75.68L102.56,76.33M175.43,75.68L175.56,76.52M232.53,75.68L232.76,76.52M273.92,75.71L273.51,76.52M273.93,75.68L273.92,75.71M357.64,75.68L357.92,75.89M358.76,76.46L357.92,75.89M358.85,76.52L358.76,76.46M76.52,76.52L77.36,77.36M77.36,77.36L77.36,77.36M101.72,77.26L101.62,77.36M102.38,76.52L101.72,77.26M175.56,76.52L175.64,77.12M175.67,77.36L175.64,77.12M232.76,76.52L232.76,76.54M232.97,77.36L232.76,76.54M273.51,76.52L273.12,77.36M358.85,76.52L359.60,77.01M360.18,77.36L359.60,77.01M77.36,77.36L78.20,78.20M78.20,78.20L78.20,78.20M100.88,78.18L100.86,78.20M101.62,77.36L100.88,78.18M175.67,77.36L175.79,78.20M232.97,77.36L233.18,78.20M273.08,77.45L272.74,78.20M273.12,77.36L273.08,77.45M360.18,77.36L360.44,77.53M361.28,78.01L360.44,77.53M361.66,78.20L361.28,78.01M78.20,78.20L79.04,79.04M79.04,79.04L79.04,79.04M100.86,78.20L100.09,79.04M175.79,78.20L175.89,79.04M233.18,78.20L233.38,79.04M272.74,78.20L272.38,79.04M361.66,78.20L362.12,78.45M362.96,78.84L362.12,78.45M363.47,79.04L362.96,78.84M79.04,79.04L79.88,79.88M79.88,79.88L79.88,79.88M100.04,79.09L99.31,79.88M100.09,79.04L100.04,79.09M175.89,79.04L175.99,79.88M233.38,79.04L233.57,79.88M272.24,79.40L272.04,79.88M272.38,79.04L272.24,79.40M363.47,79.04L363.80,79.18M364.64,79.47L363.80,79.18M365.48,79.70L364.64,79.47M366.32,79.86L365.48,79.70M366.45,79.88L366.32,79.86M79.88,79.88L80.72,80.72M80.72,80.72L80.72,80.72M99.20,80.00L98.52,80.72M99.31,79.88L99.20,80.00M175.99,79.88L176.08,80.72M233.57,79.88L233.60,80.00M233.75,80.72L233.60,80.00M272.04,79.88L271.73,80.72M366.45,79.88L367.16,79.97M368.00,80.00L367.16,79.97M80.72,80.72L81.56,81.56M81.56,81.56L81.56,81.56M98.36,80.91L97.74,81.56M98.52,80.72L98.36,80.91M176.08,80.72L176.16,81.56M233.75,80.72L233.92,81.56M271.73,80.72L271.44,81.56M81.56,81.56L82.40,82.40M82.40,82.40L82.40,82.40M97.52,81.81L96.94,82.40M97.74,81.56L97.52,81.81M176.16,81.56L176.23,82.40M233.92,81.56L234.08,82.40M271.40,81.69L271.17,82.40M271.44,81.56L271.40,81.69M82.40,82.40L83.24,83.24M83.24,83.24L83.24,83.24M96.68,82.70L96.14,83.24M96.94,82.40L96.68,82.70M176.23,82.40L176.30,83.24M234.08,82.40L234.22,83.24M271.17,82.40L270.93,83.24M83.24,83.24L84.08,84.08M84.08,84.08L84.08,84.08M95.84,83.58L95.34,84.08M96.14,83.24L95.84,83.58M176.30,83.24L176.36,84.08M234.22,83.24L234.35,84.08M270.93,83.24L270.71,84.08M84.08,84.08L84.92,84.92M84.92,84.92L84.92,84.92M95.00,84.46L94.53,84.92M95.34,84.08L95.00,84.46M176.36,84.08L176.41,84.92M234.35,84.08L234.44,84.78M234.46,84.92L234.44,84.78M270.56,84.78L270.53,84.92M270.71,84.08L270.56,84.78M84.92,84.92L85.76,85.76M85.76,85.76L85.76,85.76M94.16,85.34L93.71,85.76M94.53,84.92L94.16,85.34M176.41,84.92L176.45,85.76M234.46,84.92L234.56,85.76M270.53,84.92L270.37,85.76M85.76,85.76L86.60,86.60M86.60,86.60L86.60,86.60M93.32,86.21L92.89,86.60M93.71,85.76L93.32,86.21M176.45,85.76L176.48,86.39M176.49,86.60L176.48,86.39M234.56,85.76L234.63,86.60M270.37,85.76L270.23,86.60M86.60,86.60L87.44,87.44M87.44,87.44L87.44,87.44M92.48,87.08L92.05,87.44M92.89,86.60L92.48,87.08M176.49,86.60L176.52,87.44M234.63,86.60L234.70,87.44M270.23,86.60L270.13,87.44M87.44,87.44L88.28,88.28M88.28,88.28L88.28,88.28M91.64,87.94L91.20,88.28M92.05,87.44L91.64,87.94M176.52,87.44L176.54,88.28M234.70,87.44L234.74,88.28M270.13,87.44L270.06,88.28M88.28,88.28L89.12,89.12M89.12,89.12L89.12,89.12M90.80,88.83L90.29,89.12M91.20,88.28L90.80,88.83M176.54,88.28L176.55,89.12M234.74,88.28L234.76,89.12M270.06,88.28L270.02,89.12M89.12,89.12L89.96,89.96M90.29,89.12L89.96,89.96M176.55,89.12L176.55,89.96M234.76,89.12L234.77,89.96M270.02,89.12L270.01,89.96M89.12,90.29L88.83,90.80M89.96,89.96L89.12,90.29M90.80,90.80L89.96,89.96M176.55,89.96L176.54,90.80M234.77,89.96L234.75,90.80M270.01,89.96L270.04,90.80M88.28,91.20L87.94,91.64M88.83,90.80L88.28,91.20M90.80,90.80L90.80,90.80M91.64,91.64L90.80,90.80M176.54,90.80L176.53,91.64M234.75,90.80L234.72,91.64M270.04,90.80L270.09,91.64M87.44,92.05L87.08,92.48M87.94,91.64L87.44,92.05M91.64,91.64L91.64,91.64M92.48,92.48L91.64,91.64M176.53,91.64L176.50,92.48M234.72,91.64L234.67,92.48M270.09,91.64L270.18,92.48M86.60,92.89L86.21,93.32M87.08,92.48L86.60,92.89M92.48,92.48L92.48,92.48M93.32,93.32L92.48,92.48M176.48,93.12L176.47,93.32M176.50,92.48L176.48,93.12M234.67,92.48L234.60,93.32M270.18,92.48L270.30,93.32M85.76,93.71L85.34,94.16M86.21,93.32L85.76,93.71M93.32,93.32L93.32,93.32M94.16,94.16L93.32,93.32M176.47,93.32L176.43,94.16M234.60,93.32L234.51,94.16M270.30,93.32L270.45,94.16M84.92,94.53L84.46,95.00M85.34,94.16L84.92,94.53M94.16,94.16L94.16,94.16M95.00,95.00L94.16,94.16M176.43,94.16L176.38,95.00M234.44,94.67L234.40,95.00M234.51,94.16L234.44,94.67M270.45,94.16L270.56,94.67M270.63,95.00L270.56,94.67M84.08,95.34L83.58,95.84M84.46,95.00L84.08,95.34M95.00,95.00L95.00,95.00M95.84,95.84L95.00,95.00M176.38,95.00L176.32,95.84M234.40,95.00L234.27,95.84M270.63,95.00L270.84,95.84M83.24,96.14L82.70,96.68M83.58,95.84L83.24,96.14M95.84,95.84L95.84,95.84M96.68,96.68L95.84,95.84M176.32,95.84L176.26,96.68M234.27,95.84L234.13,96.68M270.84,95.84L271.09,96.68M82.40,96.94L81.81,97.52M82.70,96.68L82.40,96.94M96.68,96.68L96.68,96.68M97.52,97.52L96.68,96.68M176.26,96.68L176.18,97.52M234.13,96.68L233.97,97.52M271.09,96.68L271.36,97.52M81.56,97.74L80.91,98.36M81.81,97.52L81.56,97.74M97.52,97.52L97.52,97.52M98.36,98.36L97.52,97.52M176.18,97.52L176.10,98.36M233.97,97.52L233.79,98.36M271.36,97.52L271.40,97.62M271.66,98.36L271.40,97.62M80.72,98.52L80.00,99.20M80.91,98.36L80.72,98.52M98.36,98.36L98.36,98.36M99.20,99.20L98.36,98.36M176.10,98.36L176.00,99.20M233.79,98.36L233.60,99.20M271.66,98.36L272.00,99.20M368.00,99.20L368.00,99.20M79.88,99.31L79.09,100.04M80.00,99.20L79.88,99.31M99.20,99.20L99.20,99.20M100.04,100.04L99.20,99.20M176.00,99.20L175.90,100.04M233.60,99.20L233.40,100.04M233.60,99.20L233.60,99.20M272.00,99.20L272.24,99.76M272.36,100.04L272.24,99.76M363.80,99.96L363.59,100.04M364.64,99.69L363.80,99.96M365.48,99.47L364.64,99.69M366.32,99.32L365.48,99.47M367.16,99.23L366.32,99.32M368.00,99.20L367.16,99.23M78.20,100.86L78.18,100.88M79.04,100.09L78.20,100.86M79.09,100.04L79.04,100.09M100.04,100.04L100.04,100.04M100.88,100.88L100.04,100.04M175.90,100.04L175.78,100.88M233.40,100.04L233.18,100.88M272.36,100.04L272.75,100.88M362.12,100.63L361.62,100.88M362.96,100.27L362.12,100.63M363.59,100.04L362.96,100.27M77.36,101.62L77.26,101.72M78.18,100.88L77.36,101.62M100.88,100.88L100.88,100.88M101.72,101.72L100.88,100.88M175.78,100.88L175.66,101.72M233.18,100.88L232.95,101.72M272.75,100.88L273.08,101.54M273.17,101.72L273.08,101.54M360.44,101.47L360.00,101.72M361.28,101.04L360.44,101.47M361.62,100.88L361.28,101.04M76.52,102.38L76.33,102.56M77.26,101.72L76.52,102.38M101.72,101.72L101.72,101.72M102.56,102.56L101.72,101.72M175.64,101.84L175.53,102.56M175.66,101.72L175.64,101.84M232.76,102.36L232.70,102.56M232.95,101.72L232.76,102.36M273.17,101.72L273.61,102.56M358.76,102.43L358.56,102.56M359.60,101.94L358.76,102.43M360.00,101.72L359.60,101.94M75.68,103.13L75.39,103.40M76.33,102.56L75.68,103.13M102.56,102.56L102.56,102.56M103.40,103.40L102.56,102.56M175.53,102.56L175.38,103.40M232.70,102.56L232.45,103.40M273.61,102.56L273.92,103.11M274.08,103.40L273.92,103.11M357.92,102.95L357.23,103.40M358.56,102.56L357.92,102.95M74.84,103.88L74.44,104.24M75.39,103.40L74.84,103.88M103.40,103.40L103.40,103.40M104.24,104.24L103.40,103.40M175.38,103.40L175.23,104.24M232.45,103.40L232.19,104.24M274.08,103.40L274.58,104.24M356.24,104.05L355.96,104.24M357.08,103.49L356.24,104.05M357.23,103.40L357.08,103.49M74.00,104.62L73.49,105.08M74.44,104.24L74.00,104.62M104.24,104.24L104.24,104.24M105.08,105.08L104.24,104.24M175.23,104.24L175.07,105.08M231.92,105.07L231.92,105.08M232.19,104.24L231.92,105.07M274.58,104.24L274.76,104.54M275.10,105.08L274.76,104.54M355.40,104.62L354.74,105.08M355.96,104.24L355.40,104.62M73.16,105.36L72.52,105.92M73.49,105.08L73.16,105.36M105.08,105.08L105.08,105.08M105.92,105.92L105.08,105.08M175.07,105.08L174.90,105.92M231.92,105.08L231.64,105.92M275.10,105.08L275.60,105.85M275.64,105.92L275.60,105.85M353.72,105.80L353.55,105.92M354.56,105.20L353.72,105.80M354.74,105.08L354.56,105.20M72.32,106.09L71.55,106.76M72.52,105.92L72.32,106.09M105.92,105.92L105.92,105.92M106.76,106.76L105.92,105.92M174.80,106.36L174.71,106.76M174.90,105.92L174.80,106.36M231.64,105.92L231.35,106.76M275.64,105.92L276.21,106.76M352.88,106.40L352.39,106.76M353.55,105.92L352.88,106.40M70.64,107.54L70.57,107.60M71.48,106.82L70.64,107.54M71.55,106.76L71.48,106.82M106.76,106.76L106.76,106.76M107.60,107.60L106.76,106.76M174.71,106.76L174.52,107.60M231.08,107.55L231.06,107.60M231.35,106.76L231.08,107.55M276.21,106.76L276.44,107.09M276.80,107.60L276.44,107.09M352.04,107.01L351.24,107.60M352.39,106.76L352.04,107.01M69.80,108.25L69.57,108.44M70.57,107.60L69.80,108.25M107.60,107.60L107.60,107.60M108.44,108.44L107.60,107.60M174.52,107.60L174.32,108.44M231.06,107.60L230.77,108.44M276.80,107.60L277.28,108.25M277.42,108.44L277.28,108.25M350.36,108.25L350.11,108.44M351.20,107.63L350.36,108.25M351.24,107.60L351.20,107.63M68.96,108.95L68.57,109.28M69.57,108.44L68.96,108.95M108.44,108.44L108.44,108.44M109.28,109.28L108.44,108.44M174.32,108.44L174.10,109.28M230.77,108.44L230.47,109.28M277.42,108.44L278.06,109.28M349.52,108.88L348.99,109.28M350.11,108.44L349.52,108.88M68.12,109.65L67.55,110.12M68.57,109.28L68.12,109.65M109.28,109.28L109.28,109.28M110.12,110.12L109.28,109.28M173.96,109.82L173.88,110.12M174.10,109.28L173.96,109.82M230.24,109.90L230.16,110.12M230.47,109.28L230.24,109.90M278.06,109.28L278.12,109.36M278.72,110.12L278.12,109.36M348.68,109.51L347.87,110.12M348.99,109.28L348.68,109.51M67.28,110.34L66.52,110.96M67.55,110.12L67.28,110.34M110.12,110.12L110.12,110.12M110.96,110.96L110.12,110.12M173.88,110.12L173.64,110.96M230.16,110.12L229.86,110.96M278.72,110.12L278.96,110.42M279.40,110.96L278.96,110.42M347.00,110.77L346.75,110.96M347.84,110.14L347.00,110.77M347.87,110.12L347.84,110.14M65.60,111.70L65.48,111.80M66.44,111.03L65.60,111.70M66.52,110.96L66.44,111.03M110.96,110.96L110.96,110.96M111.80,111.80L110.96,110.96M173.64,110.96L173.40,111.80M229.86,110.96L229.55,111.80M279.40,110.96L279.80,111.43M280.11,111.80L279.80,111.43M346.16,111.40L345.64,111.80M346.75,110.96L346.16,111.40M64.76,112.37L64.42,112.64M65.48,111.80L64.76,112.37M111.80,111.80L111.80,111.80M112.64,112.64L111.80,111.80M173.40,111.80L173.14,112.64M229.40,112.20L229.24,112.64M229.55,111.80L229.40,112.20M280.11,111.80L280.64,112.41M280.84,112.64L280.64,112.41M345.32,112.04L344.52,112.64M345.64,111.80L345.32,112.04M63.92,113.03L63.34,113.48M64.42,112.64L63.92,113.03M112.64,112.64L112.64,112.64M113.48,113.48L112.64,112.64M173.12,112.70L172.87,113.48M173.14,112.64L173.12,112.70M229.24,112.64L228.93,113.48M280.84,112.64L281.48,113.35M281.59,113.48L281.48,113.35M343.64,113.30L343.40,113.48M344.48,112.67L343.64,113.30M344.52,112.64L344.48,112.67M63.08,113.68L62.25,114.32M63.34,113.48L63.08,113.68M113.48,113.48L113.48,113.48M114.32,114.32L113.48,113.48M172.87,113.48L172.59,114.32M228.93,113.48L228.62,114.32M281.59,113.48L282.32,114.27M282.37,114.32L282.32,114.27M342.80,113.93L342.28,114.32M343.40,113.48L342.80,113.93M61.40,114.96L61.14,115.16M62.24,114.33L61.40,114.96M62.25,114.32L62.24,114.33M114.32,114.32L114.32,114.32M115.16,115.16L114.32,114.32M172.59,114.32L172.30,115.16M228.56,114.48L228.31,115.16M228.62,114.32L228.56,114.48M282.37,114.32L283.16,115.15M283.17,115.16L283.16,115.15M341.96,114.55L341.14,115.16M342.28,114.32L341.96,114.55M60.56,115.59L60.00,116.00M61.14,115.16L60.56,115.59M115.16,115.16L115.16,115.16M116.00,116.00L115.16,115.16M172.28,115.22L172.00,116.00M172.30,115.16L172.28,115.22M228.31,115.16L228.00,116.00M283.17,115.16L284.00,116.00M284.00,116.00L284.00,116.00M340.28,115.79L340.00,116.00M341.12,115.18L340.28,115.79M341.14,115.16L341.12,115.18M58.88,116.81L58.84,116.84M59.72,116.20L58.88,116.81M60.00,116.00L59.72,116.20M116.00,116.00L116.00,116.00M116.84,116.84L116.00,116.00M172.00,116.00L171.69,116.84M227.72,116.77L227.69,116.84M228.00,116.00L227.72,116.77M284.00,116.00L284.84,116.83M284.85,116.84L284.84,116.83M339.44,116.41L338.85,116.84M340.00,116.00L339.44,116.41M58.04,117.41L57.65,117.68M58.84,116.84L58.04,117.41M116.84,116.84L116.84,116.84M117.68,117.68L116.84,116.84M171.44,117.48L171.36,117.68M171.69,116.84L171.44,117.48M227.69,116.84L227.39,117.68M284.85,116.84L285.68,117.63M285.73,117.68L285.68,117.63M337.76,117.62L337.68,117.68M338.60,117.02L337.76,117.62M338.85,116.84L338.60,117.02M57.20,117.99L56.43,118.52M57.65,117.68L57.20,117.99M117.68,117.68L117.68,117.68M118.52,118.52L117.68,117.68M171.36,117.68L171.03,118.52M227.39,117.68L227.09,118.52M285.73,117.68L286.52,118.41M286.65,118.52L286.52,118.41M336.92,118.22L336.49,118.52M337.68,117.68L336.92,118.22M55.52,119.13L55.17,119.36M56.36,118.57L55.52,119.13M56.43,118.52L56.36,118.57M118.52,118.52L118.52,118.52M119.36,119.36L118.52,118.52M171.03,118.52L170.68,119.36M226.88,119.11L226.79,119.36M227.09,118.52L226.88,119.11M286.65,118.52L287.36,119.16M287.59,119.36L287.36,119.16M336.08,118.81L335.29,119.36M336.49,118.52L336.08,118.81M54.68,119.69L53.88,120.20M55.17,119.36L54.68,119.69M119.36,119.36L119.36,119.36M120.20,120.20L119.36,119.36M170.60,119.54L170.32,120.20M170.68,119.36L170.60,119.54M226.79,119.36L226.49,120.20M287.59,119.36L288.20,119.89M288.57,120.20L288.20,119.89M334.40,119.97L334.07,120.20M335.24,119.40L334.40,119.97M335.29,119.36L335.24,119.40M53.00,120.75L52.53,121.04M53.84,120.22L53.00,120.75M53.88,120.20L53.84,120.22M120.20,120.20L120.20,120.20M121.04,121.04L120.20,120.20M170.32,120.20L169.95,121.04M226.49,120.20L226.20,121.04M288.57,120.20L289.04,120.60M289.58,121.04L289.04,120.60M333.56,120.54L332.81,121.04M334.07,120.20L333.56,120.54M51.32,121.76L51.12,121.88M52.16,121.27L51.32,121.76M52.53,121.04L52.16,121.27M121.04,121.04L121.04,121.04M121.88,121.88L121.04,121.04M169.76,121.45L169.56,121.88M169.95,121.04L169.76,121.45M226.04,121.52L225.92,121.88M226.20,121.04L226.04,121.52M289.58,121.04L289.88,121.28M290.64,121.88L289.88,121.28M331.88,121.65L331.53,121.88M332.72,121.10L331.88,121.65M332.81,121.04L332.72,121.10M49.64,122.72L49.64,122.72M50.48,122.25L49.64,122.72M51.12,121.88L50.48,122.25M121.88,121.88L121.88,121.88M122.72,122.72L121.88,121.88M169.56,121.88L169.17,122.72M225.92,121.88L225.64,122.72M290.64,121.88L290.72,121.94M291.56,122.58L290.72,121.94M291.75,122.72L291.56,122.58M331.04,122.19L330.20,122.72M331.53,121.88L331.04,122.19M48.80,123.18L48.06,123.56M49.64,122.72L48.80,123.18M122.72,122.72L122.72,122.72M123.56,123.56L122.72,122.72M168.92,123.23L168.76,123.56M169.17,122.72L168.92,123.23M225.64,122.72L225.36,123.56M291.75,122.72L292.40,123.20M292.91,123.56L292.40,123.20M329.36,123.24L328.83,123.56M330.20,122.72L329.36,123.24M330.20,122.72L330.20,122.72M47.12,124.04L46.36,124.40M47.96,123.61L47.12,124.04M48.06,123.56L47.96,123.61M123.56,123.56L123.56,123.56M124.40,124.40L123.56,123.56M168.76,123.56L168.34,124.40M225.20,124.06L225.09,124.40M225.36,123.56L225.20,124.06M292.91,123.56L293.24,123.79M294.08,124.36L293.24,123.79M294.15,124.40L294.08,124.36M327.68,124.24L327.40,124.40M328.52,123.75L327.68,124.24M328.83,123.56L328.52,123.75M44.60,125.19L44.48,125.24M45.44,124.82L44.60,125.19M46.28,124.44L45.44,124.82M46.36,124.40L46.28,124.44M124.40,124.40L124.40,124.40M125.24,125.24L124.40,124.40M168.08,124.91L167.91,125.24M168.34,124.40L168.08,124.91M225.09,124.40L224.83,125.24M294.15,124.40L294.92,124.90M295.46,125.24L294.92,124.90M326.00,125.19L325.90,125.24M326.84,124.72L326.00,125.19M327.40,124.40L326.84,124.72M42.92,125.87L42.32,126.08M43.76,125.54L42.92,125.87M44.48,125.24L43.76,125.54M125.24,125.24L125.24,125.24M126.08,126.08L125.24,125.24M167.91,125.24L167.46,126.08M224.83,125.24L224.57,126.08M295.46,125.24L295.76,125.42M296.60,125.92L295.76,125.42M296.89,126.08L296.60,125.92M324.32,126.07L324.29,126.08M325.16,125.64L324.32,126.07M325.90,125.24L325.16,125.64M40.40,126.72L39.68,126.92M41.24,126.46L40.40,126.72M42.08,126.17L41.24,126.46M42.32,126.08L42.08,126.17M126.08,126.08L126.08,126.08M126.92,126.92L126.08,126.08M167.24,126.49L167.00,126.92M167.46,126.08L167.24,126.49M224.36,126.77L224.31,126.92M224.57,126.08L224.36,126.77M296.89,126.08L297.44,126.39M298.28,126.83L297.44,126.39M298.46,126.92L298.28,126.83M322.64,126.88L322.55,126.92M323.48,126.49L322.64,126.88M324.29,126.08L323.48,126.49M36.20,127.67L35.58,127.76M37.04,127.53L36.20,127.67M37.88,127.37L37.04,127.53M38.72,127.17L37.88,127.37M39.56,126.96L38.72,127.17M39.68,126.92L39.56,126.96M126.92,126.92L126.92,126.92M127.76,127.76L126.92,126.92M167.00,126.92L166.54,127.76M224.31,126.92L224.07,127.76M298.46,126.92L299.12,127.25M299.96,127.64L299.12,127.25M300.24,127.76L299.96,127.64M320.96,127.62L320.60,127.76M321.80,127.26L320.96,127.62M322.55,126.92L321.80,127.26M32.84,127.99L32.00,128.00M33.68,127.95L32.84,127.99M34.52,127.88L33.68,127.95M35.36,127.79L34.52,127.88M35.58,127.76L35.36,127.79M127.76,127.76L127.76,127.76M128.60,128.60L127.76,127.76M166.40,128.00L166.05,128.60M166.54,127.76L166.40,128.00M224.07,127.76L223.83,128.60M300.24,127.76L300.80,128.00M301.64,128.34L300.80,128.00M302.38,128.60L301.64,128.34M318.44,128.56L318.31,128.60M319.28,128.27L318.44,128.56M320.12,127.96L319.28,128.27M320.60,127.76L320.12,127.96M128.60,128.60L128.60,128.60M129.44,129.44L128.60,128.60M166.05,128.60L165.56,129.44M223.83,128.60L223.60,129.44M302.38,128.60L302.48,128.64M303.32,128.91L302.48,128.64M304.16,129.16L303.32,128.91M305.00,129.37L304.16,129.16M305.33,129.44L305.00,129.37M315.92,129.29L315.22,129.44M316.76,129.07L315.92,129.29M317.60,128.83L316.76,129.07M318.31,128.60L317.60,128.83M129.44,129.44L129.44,129.44M130.28,130.28L129.44,129.44M165.56,129.44L165.05,130.28M165.56,129.44L165.56,129.44M223.52,129.73L223.37,130.28M223.60,129.44L223.52,129.73M305.33,129.44L305.84,129.55M306.68,129.70L305.84,129.55M307.52,129.82L306.68,129.70M308.36,129.91L307.52,129.82M309.20,129.96L308.36,129.91M310.04,129.99L309.20,129.96M310.88,129.98L310.04,129.99M311.72,129.94L310.88,129.98M312.56,129.87L311.72,129.94M313.40,129.77L312.56,129.87M314.24,129.63L313.40,129.77M315.08,129.47L314.24,129.63M315.22,129.44L315.08,129.47M130.28,130.28L130.28,130.28M131.12,131.12L130.28,130.28M164.72,130.82L164.53,131.12M165.05,130.28L164.72,130.82M223.37,130.28L223.16,131.12M131.12,131.12L131.12,131.12M131.96,131.96L131.12,131.12M164.53,131.12L164.00,131.96M223.16,131.12L222.95,131.96M131.96,131.96L131.96,131.96M132.80,132.80L131.96,131.96M163.88,132.15L163.45,132.80M164.00,131.96L163.88,132.15M222.95,131.96L222.75,132.80M132.80,132.80L132.80,132.80M133.64,133.64L132.80,132.80M163.04,133.43L162.90,133.64M163.45,132.80L163.04,133.43M222.68,133.09L222.55,133.64M222.75,132.80L222.68,133.09M133.64,133.64L133.64,133.64M134.48,134.48L133.64,133.64M162.90,133.64L162.32,134.48M222.55,133.64L222.37,134.48M134.48,134.48L134.48,134.48M135.32,135.32L134.48,134.48M162.20,134.67L161.74,135.32M162.32,134.48L162.20,134.67M222.37,134.48L222.19,135.32M135.32,135.32L135.32,135.32M136.16,136.16L135.32,135.32M161.36,135.86L161.14,136.16M161.74,135.32L161.36,135.86M222.19,135.32L222.02,136.16M136.16,136.16L136.16,136.16M137.00,137.00L136.16,136.16M161.14,136.16L160.53,137.00M222.02,136.16L221.86,137.00M137.00,137.00L137.00,137.00M137.84,137.84L137.00,137.00M160.52,137.02L159.91,137.84M160.53,137.00L160.52,137.02M221.84,137.12L221.71,137.84M221.86,137.00L221.84,137.12M137.84,137.84L137.84,137.84M138.68,138.68L137.84,137.84M159.68,138.15L159.27,138.68M159.91,137.84L159.68,138.15M221.71,137.84L221.57,138.68M138.68,138.68L138.68,138.68M139.52,139.52L138.68,138.68M158.84,139.25L158.62,139.52M159.27,138.68L158.84,139.25M221.57,138.68L221.44,139.52M139.52,139.52L139.52,139.52M140.36,140.36L139.52,139.52M158.00,140.31L157.95,140.36M158.62,139.52L158.00,140.31M221.44,139.52L221.31,140.36M140.36,140.36L140.36,140.36M141.20,141.20L140.36,140.36M157.95,140.36L157.27,141.20M221.31,140.36L221.20,141.20M141.20,141.20L141.20,141.20M142.04,142.04L141.20,141.20M157.16,141.35L156.58,142.04M157.27,141.20L157.16,141.35M221.20,141.20L221.10,142.04M142.04,142.04L142.04,142.04M142.88,142.88L142.04,142.04M156.32,142.37L155.87,142.88M156.58,142.04L156.32,142.37M221.10,142.04L221.00,142.88M142.88,142.88L142.88,142.88M143.72,143.72L142.88,142.88M155.48,143.36L155.14,143.72M155.87,142.88L155.48,143.36M221.00,142.91L220.92,143.72M221.00,142.88L221.00,142.91M143.72,143.72L143.72,143.72M144.56,144.56L143.72,143.72M154.64,144.33L154.41,144.56M155.14,143.72L154.64,144.33M220.92,143.72L220.84,144.56M144.56,144.56L144.56,144.56M145.40,145.40L144.56,144.56M153.80,145.27L153.66,145.40M154.41,144.56L153.80,145.27M220.84,144.56L220.78,145.40M145.40,145.40L145.40,145.40M146.24,146.24L145.40,145.40M152.96,146.19L152.90,146.24M153.66,145.40L152.96,146.19M220.78,145.40L220.73,146.24M146.24,146.24L146.24,146.24M147.08,147.08L146.24,146.24M152.90,146.24L152.12,147.08M220.73,146.24L220.69,147.08M147.08,147.08L147.08,147.08M147.92,147.92L147.08,147.08M152.12,147.08L151.32,147.92M152.12,147.08L152.12,147.08M220.69,147.08L220.66,147.92M147.92,147.92L147.92,147.92M148.76,148.76L147.92,147.92M151.28,147.98L150.49,148.76M151.32,147.92L151.28,147.98M220.66,147.92L220.64,148.76M148.76,148.76L148.76,148.76M149.60,149.60L148.76,148.76M150.44,148.89L149.60,149.60M150.49,148.76L150.44,148.89M220.64,148.76L220.63,149.60M149.60,149.60L148.89,150.44M149.60,149.60L150.44,150.44M150.44,150.44L150.44,150.44M220.63,149.60L220.64,150.44M148.76,150.49L147.98,151.28M148.89,150.44L148.76,150.49M150.44,150.44L151.28,151.28M151.28,151.28L151.28,151.28M220.64,150.44L220.66,151.28M147.92,151.32L147.08,152.12M147.98,151.28L147.92,151.32M151.28,151.28L152.12,152.12M152.12,152.12L152.12,152.12M220.66,151.28L220.69,152.12M146.24,152.90L146.19,152.96M147.08,152.12L146.24,152.90M147.08,152.12L147.08,152.12M152.12,152.12L152.96,152.96M152.96,152.96L152.96,152.96M220.69,152.12L220.73,152.96M145.40,153.66L145.27,153.80M146.19,152.96L145.40,153.66M152.96,152.96L153.80,153.80M153.80,153.80L153.80,153.80M220.73,152.96L220.79,153.80M144.56,154.41L144.33,154.64M145.27,153.80L144.56,154.41M153.80,153.80L154.64,154.64M154.64,154.64L154.64,154.64M220.79,153.80L220.86,154.64M143.72,155.14L143.36,155.48M144.33,154.64L143.72,155.14M154.64,154.64L155.48,155.48M155.48,155.48L155.48,155.48M220.86,154.64L220.95,155.48M142.88,155.87L142.37,156.32M143.36,155.48L142.88,155.87M155.48,155.48L156.32,156.32M156.32,156.32L156.32,156.32M220.95,155.48L221.00,155.84M221.06,156.32L221.00,155.84M142.04,156.58L141.35,157.16M142.37,156.32L142.04,156.58M156.32,156.32L157.16,157.16M157.16,157.16L157.16,157.16M221.06,156.32L221.18,157.16M140.36,157.95L140.31,158.00M141.20,157.27L140.36,157.95M141.35,157.16L141.20,157.27M157.16,157.16L158.00,158.00M158.00,158.00L158.00,158.00M221.18,157.16L221.32,158.00M139.52,158.62L139.25,158.84M140.31,158.00L139.52,158.62M158.00,158.00L158.84,158.84M158.84,158.84L158.84,158.84M221.32,158.00L221.48,158.84M138.68,159.27L138.15,159.68M139.25,158.84L138.68,159.27M158.84,158.84L159.68,159.68M159.68,159.68L159.68,159.68M221.48,158.84L221.66,159.68M137.84,159.91L137.02,160.52M138.15,159.68L137.84,159.91M159.68,159.68L160.52,160.52M160.52,160.52L160.52,160.52M221.66,159.68L221.84,160.44M221.86,160.52L221.84,160.44M136.16,161.14L135.86,161.36M137.00,160.53L136.16,161.14M137.02,160.52L137.00,160.53M160.52,160.52L161.36,161.36M161.36,161.36L161.36,161.36M221.86,160.52L222.08,161.36M135.32,161.74L134.67,162.20M135.86,161.36L135.32,161.74M161.36,161.36L162.20,162.20M162.20,162.20L162.20,162.20M222.08,161.36L222.33,162.20M133.64,162.90L133.43,163.04M134.48,162.32L133.64,162.90M134.67,162.20L134.48,162.32M162.20,162.20L163.04,163.04M163.04,163.04L163.04,163.04M222.33,162.20L222.60,163.04M132.80,163.45L132.15,163.88M133.43,163.04L132.80,163.45M163.04,163.04L163.88,163.88M163.88,163.88L163.88,163.88M222.60,163.04L222.68,163.27M222.90,163.88L222.68,163.27M131.12,164.53L130.82,164.72M131.96,164.00L131.12,164.53M132.15,163.88L131.96,164.00M163.88,163.88L164.72,164.72M164.72,164.72L164.72,164.72M222.90,163.88L223.23,164.72M130.28,165.05L129.44,165.56M130.82,164.72L130.28,165.05M164.72,164.72L165.56,165.56M165.56,165.56L165.56,165.56M223.23,164.72L223.52,165.39M223.60,165.56L223.52,165.39M305.84,165.49L305.33,165.56M306.68,165.40L305.84,165.49M307.52,165.33L306.68,165.40M308.36,165.28L307.52,165.33M309.20,165.25L308.36,165.28M310.04,165.23L309.20,165.25M310.88,165.24L310.04,165.23M311.72,165.26L310.88,165.24M312.56,165.30L311.72,165.26M313.40,165.37L312.56,165.30M314.24,165.44L313.40,165.37M315.08,165.54L314.24,165.44M315.22,165.56L315.08,165.54M128.60,166.05L128.00,166.40M129.44,165.56L128.60,166.05M129.44,165.56L129.44,165.56M165.56,165.56L166.40,166.40M166.40,166.40L166.40,166.40M223.60,165.56L224.00,166.40M301.64,166.21L300.80,166.40M302.48,166.03L301.64,166.21M303.32,165.87L302.48,166.03M304.16,165.73L303.32,165.87M305.00,165.60L304.16,165.73M305.33,165.56L305.00,165.60M315.22,165.56L315.92,165.65M316.76,165.78L315.92,165.65M317.60,165.92L316.76,165.78M318.44,166.08L317.60,165.92M319.28,166.25L318.44,166.08M320.00,166.40L319.28,166.25M32.84,166.41L32.00,166.40M33.68,166.43L32.84,166.41M34.52,166.47L33.68,166.43M35.36,166.52L34.52,166.47M36.20,166.58L35.36,166.52M37.04,166.66L36.20,166.58M37.88,166.76L37.04,166.66M38.72,166.86L37.88,166.76M39.56,166.98L38.72,166.86M40.40,167.12L39.56,166.98M41.12,167.24L40.40,167.12M126.92,167.00L126.49,167.24M127.76,166.54L126.92,167.00M128.00,166.40L127.76,166.54M166.40,166.40L167.24,167.24M167.24,167.24L167.24,167.24M224.00,166.40L224.36,167.09M224.44,167.24L224.36,167.09M298.28,167.05L297.64,167.24M299.12,166.82L298.28,167.05M299.96,166.60L299.12,166.82M300.80,166.40L299.96,166.60M300.80,166.40L300.80,166.40M320.00,166.40L320.12,166.43M320.96,166.62L320.12,166.43M321.80,166.82L320.96,166.62M322.64,167.03L321.80,166.82M323.46,167.24L322.64,167.03M41.12,167.24L41.24,167.26M42.08,167.41L41.24,167.26M42.92,167.58L42.08,167.41M43.76,167.75L42.92,167.58M44.60,167.93L43.76,167.75M45.25,168.08L44.60,167.93M125.24,167.91L124.91,168.08M126.08,167.46L125.24,167.91M126.49,167.24L126.08,167.46M167.24,167.24L168.08,168.08M168.08,168.08L168.08,168.08M224.44,167.24L224.93,168.08M295.76,167.81L294.93,168.08M296.60,167.55L295.76,167.81M297.44,167.30L296.60,167.55M297.64,167.24L297.44,167.30M323.46,167.24L323.48,167.24M324.32,167.47L323.48,167.24M325.16,167.70L324.32,167.47M326.00,167.93L325.16,167.70M326.50,168.08L326.00,167.93M45.25,168.08L45.44,168.12M46.28,168.32L45.44,168.12M47.12,168.52L46.28,168.32M47.96,168.73L47.12,168.52M48.69,168.92L47.96,168.73M123.56,168.76L123.23,168.92M124.40,168.34L123.56,168.76M124.91,168.08L124.40,168.34M168.08,168.08L168.92,168.92M168.92,168.92L168.92,168.92M224.93,168.08L225.20,168.51M225.47,168.92L225.20,168.51M293.24,168.65L292.45,168.92M294.08,168.36L293.24,168.65M294.92,168.08L294.08,168.36M294.93,168.08L294.92,168.08M326.50,168.08L326.84,168.18M327.68,168.42L326.84,168.18M328.52,168.67L327.68,168.42M329.36,168.92L328.52,168.67M329.38,168.92L329.36,168.92M48.69,168.92L48.80,168.95M49.64,169.17L48.80,168.95M50.48,169.39L49.64,169.17M51.32,169.62L50.48,169.39M51.85,169.76L51.32,169.62M121.88,169.56L121.45,169.76M122.72,169.17L121.88,169.56M123.23,168.92L122.72,169.17M168.92,168.92L169.76,169.76M169.76,169.76L169.76,169.76M225.47,168.92L226.04,169.73M226.06,169.76L226.04,169.73M290.72,169.53L290.10,169.76M291.56,169.23L290.72,169.53M292.40,168.94L291.56,169.23M292.45,168.92L292.40,168.94M329.38,168.92L330.20,169.16M331.04,169.42L330.20,169.16M331.88,169.67L331.04,169.42M332.19,169.76L331.88,169.67M51.85,169.76L52.16,169.84M53.00,170.08L52.16,169.84M53.84,170.31L53.00,170.08M54.68,170.54L53.84,170.31M54.89,170.60L54.68,170.54M120.20,170.32L119.54,170.60M121.04,169.95L120.20,170.32M121.45,169.76L121.04,169.95M169.76,169.76L170.60,170.60M170.60,170.60L170.60,170.60M226.06,169.76L226.72,170.60M288.20,170.45L287.80,170.60M289.04,170.14L288.20,170.45M289.88,169.84L289.04,170.14M290.10,169.76L289.88,169.84M332.19,169.76L332.72,169.92M333.56,170.17L332.72,169.92M334.40,170.42L333.56,170.17M335.03,170.60L334.40,170.42M54.89,170.60L55.52,170.77M56.36,171.01L55.52,170.77M57.20,171.24L56.36,171.01M57.94,171.44L57.20,171.24M117.68,171.36L117.48,171.44M118.52,171.03L117.68,171.36M119.36,170.68L118.52,171.03M119.54,170.60L119.36,170.68M170.60,170.60L171.44,171.44M171.44,171.44L171.44,171.44M226.72,170.60L226.88,170.78M227.46,171.44L226.88,170.78M285.68,171.38L285.52,171.44M286.52,171.07L285.68,171.38M287.36,170.76L286.52,171.07M287.80,170.60L287.36,170.76M335.03,170.60L335.24,170.66M336.08,170.91L335.24,170.66M336.92,171.15L336.08,170.91M337.76,171.38L336.92,171.15M337.96,171.44L337.76,171.38M57.94,171.44L58.04,171.47M58.88,171.70L58.04,171.47M59.72,171.92L58.88,171.70M60.56,172.15L59.72,171.92M61.05,172.28L60.56,172.15M116.00,172.00L115.22,172.28M116.84,171.69L116.00,172.00M117.48,171.44L116.84,171.69M171.44,171.44L172.28,172.28M172.28,172.28L172.28,172.28M227.46,171.44L227.72,171.71M228.29,172.28L227.72,171.71M284.00,172.00L283.23,172.28M284.84,171.69L284.00,172.00M285.52,171.44L284.84,171.69M337.96,171.44L338.60,171.62M339.44,171.85L338.60,171.62M340.28,172.07L339.44,171.85M341.06,172.28L340.28,172.07M61.05,172.28L61.40,172.37M62.24,172.59L61.40,172.37M63.08,172.81L62.24,172.59M63.92,173.02L63.08,172.81M64.34,173.12L63.92,173.02M113.48,172.87L112.70,173.12M114.32,172.59L113.48,172.87M115.16,172.30L114.32,172.59M115.22,172.28L115.16,172.30M172.28,172.28L173.12,173.12M173.12,173.12L173.12,173.12M228.29,172.28L228.56,172.54M229.22,173.12L228.56,172.54M281.48,172.91L280.89,173.12M282.32,172.61L281.48,172.91M283.16,172.31L282.32,172.61M283.23,172.28L283.16,172.31M341.06,172.28L341.12,172.30M341.96,172.51L341.12,172.30M342.80,172.72L341.96,172.51M343.64,172.93L342.80,172.72M344.44,173.12L343.64,172.93M64.34,173.12L64.76,173.22M65.60,173.43L64.76,173.22M66.44,173.62L65.60,173.43M67.28,173.82L66.44,173.62M67.92,173.96L67.28,173.82M110.12,173.88L109.82,173.96M110.96,173.64L110.12,173.88M111.80,173.40L110.96,173.64M112.64,173.14L111.80,173.40M112.70,173.12L112.64,173.14M173.12,173.12L173.96,173.96M173.96,173.96L173.96,173.96M229.22,173.12L229.40,173.28M230.24,173.94L229.40,173.28M230.27,173.96L230.24,173.94M278.96,173.80L278.48,173.96M279.80,173.51L278.96,173.80M280.64,173.21L279.80,173.51M280.89,173.12L280.64,173.21M344.44,173.12L344.48,173.13M345.32,173.32L344.48,173.13M346.16,173.51L345.32,173.32M347.00,173.70L346.16,173.51M347.84,173.87L347.00,173.70M348.27,173.96L347.84,173.87M67.92,173.96L68.12,174.00M68.96,174.19L68.12,174.00M69.80,174.36L68.96,174.19M70.64,174.54L69.80,174.36M71.48,174.70L70.64,174.54M72.01,174.80L71.48,174.70M106.76,174.71L106.36,174.80M107.60,174.52L106.76,174.71M108.44,174.32L107.60,174.52M109.28,174.10L108.44,174.32M109.82,173.96L109.28,174.10M173.96,173.96L174.80,174.80M174.80,174.80L174.80,174.80M230.27,173.96L231.08,174.53M231.49,174.80L231.08,174.53M276.44,174.64L275.94,174.80M277.28,174.36L276.44,174.64M278.12,174.08L277.28,174.36M278.48,173.96L278.12,174.08M348.27,173.96L348.68,174.04M349.52,174.21L348.68,174.04M350.36,174.36L349.52,174.21M351.20,174.51L350.36,174.36M352.04,174.66L351.20,174.51M352.88,174.79L352.04,174.66M352.93,174.80L352.88,174.79M72.01,174.80L72.32,174.86M73.16,175.01L72.32,174.86M74.00,175.16L73.16,175.01M74.84,175.30L74.00,175.16M75.68,175.43L74.84,175.30M76.52,175.56L75.68,175.43M77.12,175.64L76.52,175.56M102.56,175.53L101.84,175.64M103.40,175.38L102.56,175.53M104.24,175.23L103.40,175.38M105.08,175.07L104.24,175.23M105.92,174.90L105.08,175.07M106.36,174.80L105.92,174.90M174.80,174.80L175.64,175.64M175.64,175.64L175.64,175.64M231.49,174.80L231.92,175.07M232.76,175.56L231.92,175.07M232.91,175.64L232.76,175.56M273.92,175.43L273.23,175.64M274.76,175.17L273.92,175.43M275.60,174.91L274.76,175.17M275.94,174.80L275.60,174.91M352.93,174.80L353.72,174.92M354.56,175.04L353.72,174.92M355.40,175.16L354.56,175.04M356.24,175.27L355.40,175.16M357.08,175.37L356.24,175.27M357.92,175.46L357.08,175.37M358.76,175.55L357.92,175.46M359.60,175.62L358.76,175.55M359.78,175.64L359.60,175.62M77.12,175.64L77.36,175.67M78.20,175.79L77.36,175.67M79.04,175.89L78.20,175.79M79.88,175.99L79.04,175.89M80.72,176.08L79.88,175.99M81.56,176.16L80.72,176.08M82.40,176.23L81.56,176.16M83.24,176.30L82.40,176.23M84.08,176.36L83.24,176.30M84.92,176.41L84.08,176.36M85.76,176.45L84.92,176.41M86.39,176.48L85.76,176.45M93.32,176.47L93.12,176.48M94.16,176.43L93.32,176.47M95.00,176.38L94.16,176.43M95.84,176.32L95.00,176.38M96.68,176.26L95.84,176.32M97.52,176.18L96.68,176.26M98.36,176.10L97.52,176.18M99.20,176.00L98.36,176.10M100.04,175.90L99.20,176.00M100.88,175.78L100.04,175.90M101.72,175.66L100.88,175.78M101.84,175.64L101.72,175.66M175.64,175.64L176.48,176.48M176.48,176.48L176.48,176.48M232.91,175.64L233.60,176.00M234.44,176.40L233.60,176.00M234.61,176.48L234.44,176.40M270.56,176.40L270.27,176.48M271.40,176.17L270.56,176.40M272.24,175.93L271.40,176.17M273.08,175.69L272.24,175.93M273.23,175.64L273.08,175.69M359.78,175.64L360.44,175.70M361.28,175.76L360.44,175.70M362.12,175.82L361.28,175.76M362.96,175.87L362.12,175.82M363.80,175.91L362.96,175.87M364.64,175.94L363.80,175.91M365.48,175.97L364.64,175.94M366.32,175.99L365.48,175.97M367.16,176.00L366.32,175.99M368.00,176.00L367.16,176.00M86.39,176.48L86.60,176.49M87.44,176.52L86.60,176.49M88.28,176.54L87.44,176.52M89.12,176.55L88.28,176.54M89.96,176.55L89.12,176.55M90.80,176.54L89.96,176.55M91.64,176.53L90.80,176.54M92.48,176.50L91.64,176.53M93.12,176.48L92.48,176.50M176.48,176.48L177.32,177.32M177.32,177.32L177.32,177.32M234.61,176.48L235.28,176.77M236.12,177.10L235.28,176.77M236.73,177.32L236.12,177.10M267.20,177.25L266.91,177.32M268.04,177.05L267.20,177.25M268.88,176.84L268.04,177.05M269.72,176.63L268.88,176.84M270.27,176.48L269.72,176.63M177.32,177.32L178.16,178.16M178.16,178.16L178.16,178.16M236.73,177.32L236.96,177.40M237.80,177.67L236.96,177.40M238.64,177.92L237.80,177.67M239.48,178.14L238.64,177.92M239.56,178.16L239.48,178.14M263.00,178.14L262.88,178.16M263.84,177.98L263.00,178.14M264.68,177.81L263.84,177.98M265.52,177.63L264.68,177.81M266.36,177.45L265.52,177.63M266.91,177.32L266.36,177.45M178.16,178.16L179.00,179.00M179.00,179.00L179.00,179.00M239.56,178.16L240.32,178.34M241.16,178.52L240.32,178.34M242.00,178.68L241.16,178.52M242.84,178.82L242.00,178.68M243.68,178.94L242.84,178.82M244.16,179.00L243.68,178.94M257.12,179.00L257.09,179.00M257.96,178.90L257.12,179.00M258.80,178.80L257.96,178.90M259.64,178.69L258.80,178.80M260.48,178.56L259.64,178.69M261.32,178.43L260.48,178.56M262.16,178.29L261.32,178.43M262.88,178.16L262.16,178.29M179.00,179.00L179.84,179.84M179.84,179.84L179.84,179.84M244.16,179.00L244.52,179.05M245.36,179.14L244.52,179.05M246.20,179.21L245.36,179.14M247.04,179.27L246.20,179.21M247.88,179.31L247.04,179.27M248.72,179.34L247.88,179.31M249.56,179.36L248.72,179.34M250.40,179.37L249.56,179.36M251.24,179.36L250.40,179.37M252.08,179.34L251.24,179.36M252.92,179.31L252.08,179.34M253.76,179.27L252.92,179.31M254.60,179.22L253.76,179.27M255.44,179.16L254.60,179.22M256.28,179.08L255.44,179.16M257.09,179.00L256.28,179.08M179.84,179.84L180.68,180.68M180.68,180.68L180.68,180.68M180.68,180.68L181.52,181.52M181.52,181.52L181.52,181.52M181.52,181.52L182.36,182.36M182.36,182.36L182.36,182.36M182.36,182.36L183.20,183.20M183.20,183.20L183.20,183.20M183.20,183.20L184.04,184.04M184.04,184.04L184.04,184.04M184.04,184.04L184.88,184.88M184.88,184.88L184.88,184.88M184.88,184.88L185.72,185.72M185.72,185.72L185.72,185.72M185.72,185.72L186.56,186.56M186.56,186.56L186.56,186.56M186.56,186.56L187.40,187.40M187.40,187.40L187.40,187.40M187.40,187.40L188.24,188.24M188.24,188.24L188.24,188.24M188.24,188.24L189.08,189.08M189.08,189.08L189.08,189.08M189.08,189.08L189.92,189.92M189.92,189.92L189.92,189.92M189.92,189.92L190.76,190.76M190.76,190.76L190.76,190.76M190.76,190.76L191.60,191.60M191.60,191.60L191.60,191.60M191.60,191.60L192.44,192.44M192.44,192.44L192.44,192.44M192.44,192.44L193.28,193.28M193.28,193.28L193.28,193.28M193.28,193.28L194.12,194.12M194.12,194.12L194.12,194.12M194.12,194.12L194.96,194.96M194.96,194.96L194.96,194.96M194.96,194.96L195.80,195.80M195.80,195.80L195.80,195.80M195.80,195.80L196.64,196.64M196.64,196.64L196.64,196.64M196.64,196.64L197.48,197.48M197.48,197.48L197.48,197.48M197.48,197.48L198.32,198.32M198.32,198.32L198.32,198.32M198.32,198.32L199.16,199.16M199.16,199.16L199.16,199.16M199.16,199.16L200.00,200.00M200.00,200.00L200.00,200.00M200.00,200.00L200.84,200.84M200.84,200.84L200.84,200.84M200.84,200.84L201.68,201.68M201.68,201.68L201.68,201.68M201.68,201.68L202.52,202.52M202.52,202.52L202.52,202.52M202.52,202.52L203.36,203.36M203.36,203.36L203.36,203.36M203.36,203.36L204.20,204.20M204.20,204.20L204.20,204.20M204.20,204.20L205.04,205.04M205.04,205.04L205.04,205.04M205.04,205.04L205.88,205.88M205.88,205.88L205.88,205.88M205.88,205.88L206.72,206.72M206.72,206.72L206.72,206.72M206.72,206.72L207.56,207.56M207.56,207.56L207.56,207.56M207.56,207.56L208.40,208.40M208.40,208.40L208.40,208.40M208.40,208.40L209.24,209.24M209.24,209.24L209.24,209.24M209.24,209.24L210.08,210.08M210.08,210.08L210.08,210.08M210.08,210.08L210.92,210.92M210.92,210.92L210.92,210.92M210.92,210.92L211.76,211.76M211.76,211.76L211.76,211.76M211.76,211.76L212.60,212.60M212.60,212.60L212.60,212.60M212.60,212.60L213.44,213.44M213.44,213.44L213.44,213.44M213.44,213.44L214.28,214.28M214.28,214.28L214.28,214.28M214.28,214.28L215.12,215.12M215.12,215.12L215.12,215.12M215.12,215.12L215.96,215.96M215.96,215.96L215.96,215.96M215.96,215.96L216.80,216.80M216.80,216.80L216.80,216.80M216.80,216.80L217.64,217.64M217.64,217.64L217.64,217.64M217.64,217.64L218.48,218.48M218.48,218.48L218.48,218.48M218.48,218.48L219.32,219.32M219.32,219.32L219.32,219.32M219.32,219.32L220.16,220.16M220.16,220.16L220.16,220.16M143.72,220.92L142.91,221.00M144.56,220.84L143.72,220.92M145.40,220.78L144.56,220.84M146.24,220.73L145.40,220.78M147.08,220.69L146.24,220.73M147.92,220.66L147.08,220.69M148.76,220.64L147.92,220.66M149.60,220.63L148.76,220.64M150.44,220.64L149.60,220.63M151.28,220.66L150.44,220.64M152.12,220.69L151.28,220.66M152.96,220.73L152.12,220.69M153.80,220.79L152.96,220.73M154.64,220.86L153.80,220.79M155.48,220.95L154.64,220.86M155.84,221.00L155.48,220.95M220.16,220.16L221.00,221.00M221.00,221.00L221.00,221.00M137.84,221.71L137.12,221.84M138.68,221.57L137.84,221.71M139.52,221.44L138.68,221.57M140.36,221.31L139.52,221.44M141.20,221.20L140.36,221.31M142.04,221.10L141.20,221.20M142.88,221.00L142.04,221.10M142.91,221.00L142.88,221.00M155.84,221.00L156.32,221.06M157.16,221.18L156.32,221.06M158.00,221.32L157.16,221.18M158.84,221.48L158.00,221.32M159.68,221.66L158.84,221.48M160.44,221.84L159.68,221.66M221.00,221.00L221.84,221.84M221.84,221.84L221.84,221.84M133.64,222.55L133.09,222.68M134.48,222.37L133.64,222.55M135.32,222.19L134.48,222.37M136.16,222.02L135.32,222.19M137.00,221.86L136.16,222.02M137.12,221.84L137.00,221.86M160.44,221.84L160.52,221.86M161.36,222.08L160.52,221.86M162.20,222.33L161.36,222.08M163.04,222.60L162.20,222.33M163.27,222.68L163.04,222.60M221.84,221.84L222.68,222.68M222.68,222.68L222.68,222.68M130.28,223.37L129.73,223.52M131.12,223.16L130.28,223.37M131.96,222.95L131.12,223.16M132.80,222.75L131.96,222.95M133.09,222.68L132.80,222.75M163.27,222.68L163.88,222.90M164.72,223.23L163.88,222.90M165.39,223.52L164.72,223.23M222.68,222.68L223.52,223.52M223.52,223.52L223.52,223.52M307.52,223.50L306.88,223.52M308.36,223.47L307.52,223.50M309.20,223.46L308.36,223.47M310.04,223.45L309.20,223.46M310.88,223.45L310.04,223.45M311.72,223.46L310.88,223.45M312.56,223.48L311.72,223.46M313.40,223.51L312.56,223.48M313.61,223.52L313.40,223.51M32.84,224.00L32.00,224.00M33.68,224.01L32.84,224.00M34.52,224.03L33.68,224.01M35.36,224.06L34.52,224.03M36.20,224.09L35.36,224.06M37.04,224.13L36.20,224.09M37.88,224.18L37.04,224.13M38.72,224.24L37.88,224.18M39.56,224.30L38.72,224.24M40.22,224.36L39.56,224.30M126.92,224.31L126.77,224.36M127.76,224.07L126.92,224.31M128.60,223.83L127.76,224.07M129.44,223.60L128.60,223.83M129.73,223.52L129.44,223.60M165.39,223.52L165.56,223.60M166.40,224.00L165.56,223.60M167.09,224.36L166.40,224.00M223.52,223.52L224.36,224.36M224.36,224.36L224.36,224.36M298.28,224.34L298.16,224.36M299.12,224.22L298.28,224.34M299.96,224.10L299.12,224.22M300.80,224.00L299.96,224.10M301.64,223.90L300.80,224.00M302.48,223.82L301.64,223.90M303.32,223.74L302.48,223.82M304.16,223.68L303.32,223.74M305.00,223.62L304.16,223.68M305.84,223.57L305.00,223.62M306.68,223.53L305.84,223.57M306.88,223.52L306.68,223.53M313.61,223.52L314.24,223.55M315.08,223.59L314.24,223.55M315.92,223.64L315.08,223.59M316.76,223.70L315.92,223.64M317.60,223.77L316.76,223.70M318.44,223.84L317.60,223.77M319.28,223.92L318.44,223.84M320.12,224.01L319.28,223.92M320.96,224.11L320.12,224.01M321.80,224.21L320.96,224.11M322.64,224.33L321.80,224.21M322.88,224.36L322.64,224.33M40.22,224.36L40.40,224.38M41.24,224.45L40.40,224.38M42.08,224.54L41.24,224.45M42.92,224.63L42.08,224.54M43.76,224.73L42.92,224.63M44.60,224.84L43.76,224.73M45.44,224.96L44.60,224.84M46.28,225.08L45.44,224.96M47.07,225.20L46.28,225.08M124.40,225.09L124.06,225.20M125.24,224.83L124.40,225.09M126.08,224.57L125.24,224.83M126.77,224.36L126.08,224.57M167.09,224.36L167.24,224.44M168.08,224.93L167.24,224.44M168.51,225.20L168.08,224.93M224.36,224.36L225.20,225.20M225.20,225.20L225.20,225.20M294.08,225.10L293.64,225.20M294.92,224.93L294.08,225.10M295.76,224.77L294.92,224.93M296.60,224.62L295.76,224.77M297.44,224.47L296.60,224.62M298.16,224.36L297.44,224.47M322.88,224.36L323.48,224.44M324.32,224.57L323.48,224.44M325.16,224.70L324.32,224.57M326.00,224.84L325.16,224.70M326.84,224.99L326.00,224.84M327.68,225.14L326.84,224.99M327.99,225.20L327.68,225.14M47.07,225.20L47.12,225.21M47.96,225.34L47.12,225.21M48.80,225.49L47.96,225.34M49.64,225.64L48.80,225.49M50.48,225.79L49.64,225.64M51.32,225.96L50.48,225.79M51.73,226.04L51.32,225.96M121.88,225.92L121.52,226.04M122.72,225.64L121.88,225.92M123.56,225.36L122.72,225.64M124.06,225.20L123.56,225.36M168.51,225.20L168.92,225.47M169.73,226.04L168.92,225.47M225.20,225.20L226.04,226.04M226.04,226.04L226.04,226.04M290.72,225.90L290.18,226.04M291.56,225.68L290.72,225.90M292.40,225.48L291.56,225.68M293.24,225.29L292.40,225.48M293.64,225.20L293.24,225.29M327.99,225.20L328.52,225.30M329.36,225.46L328.52,225.30M330.20,225.64L329.36,225.46M331.04,225.81L330.20,225.64M331.88,226.00L331.04,225.81M332.08,226.04L331.88,226.00M51.73,226.04L52.16,226.13M53.00,226.30L52.16,226.13M53.84,226.49L53.00,226.30M54.68,226.68L53.84,226.49M55.52,226.87L54.68,226.68M55.56,226.88L55.52,226.87M119.36,226.79L119.11,226.88M120.20,226.49L119.36,226.79M121.04,226.20L120.20,226.49M121.52,226.04L121.04,226.20M169.73,226.04L169.76,226.06M170.60,226.72L169.76,226.06M170.78,226.88L170.60,226.72M226.04,226.04L226.88,226.88M226.88,226.88L226.88,226.88M287.36,226.86L287.30,226.88M288.20,226.60L287.36,226.86M289.04,226.36L288.20,226.60M289.88,226.12L289.04,226.36M290.18,226.04L289.88,226.12M332.08,226.04L332.72,226.18M333.56,226.38L332.72,226.18M334.40,226.57L333.56,226.38M335.24,226.78L334.40,226.57M335.66,226.88L335.24,226.78M55.56,226.88L56.36,227.07M57.20,227.28L56.36,227.07M58.04,227.49L57.20,227.28M58.88,227.70L58.04,227.49M58.94,227.72L58.88,227.70M116.84,227.69L116.77,227.72M117.68,227.39L116.84,227.69M118.52,227.09L117.68,227.39M119.11,226.88L118.52,227.09M170.78,226.88L171.44,227.46M171.71,227.72L171.44,227.46M226.88,226.88L227.72,227.72M227.72,227.72L227.72,227.72M284.84,227.70L284.78,227.72M285.68,227.41L284.84,227.70M286.52,227.13L285.68,227.41M287.30,226.88L286.52,227.13M335.66,226.88L336.08,226.98M336.92,227.19L336.08,226.98M337.76,227.41L336.92,227.19M338.60,227.63L337.76,227.41M338.95,227.72L338.60,227.63M58.94,227.72L59.72,227.93M60.56,228.15L59.72,227.93M61.40,228.38L60.56,228.15M62.04,228.56L61.40,228.38M115.16,228.31L114.48,228.56M116.00,228.00L115.16,228.31M116.77,227.72L116.00,228.00M171.71,227.72L172.28,228.29M172.54,228.56L172.28,228.29M227.72,227.72L228.56,228.56M228.56,228.56L228.56,228.56M283.16,228.31L282.52,228.56M284.00,228.00L283.16,228.31M284.78,227.72L284.00,228.00M338.95,227.72L339.44,227.85M340.28,228.08L339.44,227.85M341.12,228.30L340.28,228.08M341.96,228.53L341.12,228.30M342.06,228.56L341.96,228.53M62.04,228.56L62.24,228.62M63.08,228.85L62.24,228.62M63.92,229.09L63.08,228.85M64.76,229.34L63.92,229.09M64.97,229.40L64.76,229.34M112.64,229.24L112.20,229.40M113.48,228.93L112.64,229.24M114.32,228.62L113.48,228.93M114.48,228.56L114.32,228.62M172.54,228.56L173.12,229.22M173.28,229.40L173.12,229.22M228.56,228.56L229.40,229.40M229.40,229.40L229.40,229.40M280.64,229.32L280.46,229.40M281.48,228.97L280.64,229.32M282.32,228.64L281.48,228.97M282.52,228.56L282.32,228.64M342.06,228.56L342.80,228.76M343.64,228.99L342.80,228.76M344.48,229.23L343.64,228.99M345.11,229.40L344.48,229.23M64.97,229.40L65.60,229.58M66.44,229.83L65.60,229.58M67.28,230.08L66.44,229.83M67.81,230.24L67.28,230.08M110.12,230.16L109.90,230.24M110.96,229.86L110.12,230.16M111.80,229.55L110.96,229.86M112.20,229.40L111.80,229.55M173.28,229.40L173.94,230.24M229.40,229.40L230.24,230.24M230.24,230.24L230.24,230.24M278.96,230.05L278.55,230.24M279.80,229.68L278.96,230.05M280.46,229.40L279.80,229.68M345.11,229.40L345.32,229.46M346.16,229.69L345.32,229.46M347.00,229.92L346.16,229.69M347.84,230.16L347.00,229.92M348.15,230.24L347.84,230.16M67.81,230.24L68.12,230.33M68.96,230.58L68.12,230.33M69.80,230.84L68.96,230.58M70.62,231.08L69.80,230.84M107.60,231.06L107.55,231.08M108.44,230.77L107.60,231.06M109.28,230.47L108.44,230.77M109.90,230.24L109.28,230.47M173.94,230.24L173.96,230.27M174.53,231.08L173.96,230.27M230.24,230.24L231.08,231.08M231.08,231.08L231.08,231.08M277.28,230.83L276.77,231.08M278.12,230.44L277.28,230.83M278.55,230.24L278.12,230.44M348.15,230.24L348.68,230.38M349.52,230.61L348.68,230.38M350.36,230.83L349.52,230.61M351.20,231.05L350.36,230.83M351.31,231.08L351.20,231.05M70.62,231.08L70.64,231.08M71.48,231.33L70.64,231.08M72.32,231.58L71.48,231.33M73.16,231.82L72.32,231.58M73.50,231.92L73.16,231.82M105.08,231.92L105.07,231.92M105.92,231.64L105.08,231.92M106.76,231.35L105.92,231.64M107.55,231.08L106.76,231.35M174.53,231.08L174.80,231.49M175.07,231.92L174.80,231.49M231.08,231.08L231.92,231.92M231.92,231.92L231.92,231.92M275.60,231.66L275.09,231.92M276.44,231.24L275.60,231.66M276.77,231.08L276.44,231.24M351.31,231.08L352.04,231.27M352.88,231.48L352.04,231.27M353.72,231.68L352.88,231.48M354.56,231.88L353.72,231.68M354.75,231.92L354.56,231.88M73.50,231.92L74.00,232.07M74.84,232.30L74.00,232.07M75.68,232.53L74.84,232.30M76.52,232.76L75.68,232.53M76.54,232.76L76.52,232.76M102.56,232.70L102.36,232.76M103.40,232.45L102.56,232.70M104.24,232.19L103.40,232.45M105.07,231.92L104.24,232.19M175.07,231.92L175.56,232.76M231.92,231.92L232.76,232.76M232.76,232.76L232.76,232.76M273.92,232.54L273.51,232.76M274.76,232.09L273.92,232.54M275.09,231.92L274.76,232.09M354.75,231.92L355.40,232.07M356.24,232.25L355.40,232.07M357.08,232.42L356.24,232.25M357.92,232.59L357.08,232.42M358.76,232.74L357.92,232.59M358.88,232.76L358.76,232.74M76.54,232.76L77.36,232.97M78.20,233.18L77.36,232.97M79.04,233.38L78.20,233.18M79.88,233.57L79.04,233.38M80.00,233.60L79.88,233.57M100.04,233.40L99.20,233.60M100.88,233.18L100.04,233.40M101.72,232.95L100.88,233.18M102.36,232.76L101.72,232.95M175.56,232.76L175.64,232.91M176.00,233.60L175.64,232.91M232.76,232.76L233.60,233.60M233.60,233.60L233.60,233.60M272.24,233.46L272.00,233.60M273.08,233.00L272.24,233.46M273.51,232.76L273.08,233.00M358.88,232.76L359.60,232.88M360.44,233.02L359.60,232.88M361.28,233.14L360.44,233.02M362.12,233.24L361.28,233.14M362.96,233.34L362.12,233.24M363.80,233.42L362.96,233.34M364.64,233.48L363.80,233.42M365.48,233.53L364.64,233.48M366.32,233.57L365.48,233.53M367.16,233.59L366.32,233.57M368.00,233.60L367.16,233.59M80.00,233.60L80.72,233.75M81.56,233.92L80.72,233.75M82.40,234.08L81.56,233.92M83.24,234.22L82.40,234.08M84.08,234.35L83.24,234.22M84.78,234.44L84.08,234.35M95.00,234.40L94.67,234.44M95.84,234.27L95.00,234.40M96.68,234.13L95.84,234.27M97.52,233.97L96.68,234.13M98.36,233.79L97.52,233.97M99.20,233.60L98.36,233.79M99.20,233.60L99.20,233.60M176.00,233.60L176.40,234.44M233.60,233.60L234.44,234.44M234.44,234.44L234.44,234.44M270.56,234.44L270.56,234.44M271.40,233.95L270.56,234.44M272.00,233.60L271.40,233.95M368.00,233.60L368.00,233.60M84.78,234.44L84.92,234.46M85.76,234.56L84.92,234.46M86.60,234.63L85.76,234.56M87.44,234.70L86.60,234.63M88.28,234.74L87.44,234.70M89.12,234.76L88.28,234.74M89.96,234.77L89.12,234.76M90.80,234.75L89.96,234.77M91.64,234.72L90.80,234.75M92.48,234.67L91.64,234.72M93.32,234.60L92.48,234.67M94.16,234.51L93.32,234.60M94.67,234.44L94.16,234.51M176.40,234.44L176.48,234.61M176.77,235.28L176.48,234.61M234.44,234.44L235.28,235.28M235.28,235.28L235.28,235.28M269.72,234.95L269.18,235.28M270.56,234.44L269.72,234.95M176.77,235.28L177.10,236.12M235.28,235.28L236.12,236.12M236.12,236.12L236.12,236.12M268.04,236.00L267.85,236.12M268.88,235.47L268.04,236.00M269.18,235.28L268.88,235.47M177.10,236.12L177.32,236.73M177.40,236.96L177.32,236.73M236.12,236.12L236.96,236.96M236.96,236.96L236.96,236.96M267.20,236.55L266.57,236.96M267.85,236.12L267.20,236.55M177.40,236.96L177.67,237.80M236.96,236.96L237.80,237.80M237.80,237.80L237.80,237.80M265.52,237.68L265.33,237.80M266.36,237.10L265.52,237.68M266.57,236.96L266.36,237.10M177.67,237.80L177.92,238.64M237.80,237.80L238.64,238.64M238.64,238.64L238.64,238.64M264.68,238.26L264.14,238.64M265.33,237.80L264.68,238.26M177.92,238.64L178.14,239.48M238.64,238.64L239.48,239.48M239.48,239.48L239.48,239.48M263.00,239.47L262.98,239.48M263.84,238.86L263.00,239.47M264.14,238.64L263.84,238.86M178.14,239.48L178.16,239.56M178.34,240.32L178.16,239.56M239.48,239.48L240.32,240.32M240.32,240.32L240.32,240.32M262.16,240.09L261.85,240.32M262.98,239.48L262.16,240.09M178.34,240.32L178.52,241.16M240.32,240.32L241.16,241.16M241.16,241.16L241.16,241.16M261.32,240.73L260.75,241.16M261.85,240.32L261.32,240.73M178.52,241.16L178.68,242.00M241.16,241.16L242.00,242.00M242.00,242.00L242.00,242.00M260.48,241.38L259.69,242.00M260.75,241.16L260.48,241.38M178.68,242.00L178.82,242.84M242.00,242.00L242.84,242.84M242.84,242.84L242.84,242.84M258.80,242.73L258.65,242.84M259.64,242.05L258.80,242.73M259.69,242.00L259.64,242.05M178.82,242.84L178.94,243.68M242.84,242.84L243.68,243.68M243.68,243.68L243.68,243.68M257.96,243.42L257.63,243.68M258.65,242.84L257.96,243.42M178.94,243.68L179.00,244.16M179.05,244.52L179.00,244.16M243.68,243.68L244.52,244.52M244.52,244.52L244.52,244.52M257.12,244.13L256.64,244.52M257.63,243.68L257.12,244.13M179.05,244.52L179.14,245.36M244.52,244.52L245.36,245.36M245.36,245.36L245.36,245.36M256.28,244.86L255.67,245.36M256.64,244.52L256.28,244.86M179.14,245.36L179.21,246.20M245.36,245.36L246.20,246.20M246.20,246.20L246.20,246.20M255.44,245.59L254.73,246.20M255.67,245.36L255.44,245.59M179.21,246.20L179.27,247.04M246.20,246.20L247.04,247.04M247.04,247.04L247.04,247.04M254.60,246.34L253.81,247.04M254.73,246.20L254.60,246.34M179.27,247.04L179.31,247.88M247.04,247.04L247.88,247.88M247.88,247.88L247.88,247.88M252.92,247.88L252.92,247.88M253.76,247.10L252.92,247.88M253.81,247.04L253.76,247.10M179.31,247.88L179.34,248.72M247.88,247.88L248.72,248.72M248.72,248.72L248.72,248.72M252.08,248.68L252.02,248.72M252.92,247.88L252.08,248.68M179.34,248.72L179.36,249.56M248.72,248.72L249.56,249.56M249.56,249.56L249.56,249.56M251.24,249.51L251.11,249.56M252.02,248.72L251.24,249.51M179.36,249.56L179.37,250.40M249.56,249.56L250.40,250.40M251.11,249.56L250.40,250.40M179.37,250.40L179.36,251.24M249.56,251.11L249.51,251.24M250.40,250.40L249.56,251.11M251.24,251.24L250.40,250.40M179.36,251.24L179.34,252.08M248.72,252.02L248.68,252.08M249.51,251.24L248.72,252.02M251.24,251.24L251.24,251.24M252.08,252.08L251.24,251.24M179.34,252.08L179.31,252.92M247.88,252.92L247.88,252.92M248.68,252.08L247.88,252.92M252.08,252.08L252.08,252.08M252.92,252.92L252.08,252.08M179.31,252.92L179.27,253.76M247.88,252.92L247.10,253.76M252.92,252.92L252.92,252.92M253.76,253.76L252.92,252.92M179.27,253.76L179.22,254.60M247.04,253.81L246.34,254.60M247.10,253.76L247.04,253.81M253.76,253.76L253.76,253.76M254.60,254.60L253.76,253.76M179.22,254.60L179.16,255.44M246.20,254.73L245.59,255.44M246.34,254.60L246.20,254.73M254.60,254.60L254.60,254.60M255.44,255.44L254.60,254.60M179.16,255.44L179.08,256.28M245.36,255.67L244.86,256.28M245.59,255.44L245.36,255.67M255.44,255.44L255.44,255.44M256.28,256.28L255.44,255.44M179.00,257.09L179.00,257.12M179.08,256.28L179.00,257.09M244.52,256.64L244.13,257.12M244.86,256.28L244.52,256.64M256.28,256.28L256.28,256.28M257.12,257.12L256.28,256.28M179.00,257.12L178.90,257.96M243.68,257.63L243.42,257.96M244.13,257.12L243.68,257.63M257.12,257.12L257.12,257.12M257.96,257.96L257.12,257.12M178.90,257.96L178.80,258.80M242.84,258.65L242.73,258.80M243.42,257.96L242.84,258.65M257.96,257.96L257.96,257.96M258.80,258.80L257.96,257.96M178.80,258.80L178.69,259.64M242.73,258.80L242.05,259.64M258.80,258.80L258.80,258.80M259.64,259.64L258.80,258.80M178.69,259.64L178.56,260.48M242.00,259.69L241.38,260.48M242.05,259.64L242.00,259.69M259.64,259.64L259.64,259.64M260.48,260.48L259.64,259.64M178.56,260.48L178.43,261.32M241.16,260.75L240.73,261.32M241.38,260.48L241.16,260.75M260.48,260.48L260.48,260.48M261.32,261.32L260.48,260.48M178.43,261.32L178.29,262.16M240.32,261.85L240.09,262.16M240.73,261.32L240.32,261.85M261.32,261.32L261.32,261.32M262.16,262.16L261.32,261.32M178.16,262.88L178.14,263.00M178.29,262.16L178.16,262.88M239.48,262.98L239.47,263.00M240.09,262.16L239.48,262.98M262.16,262.16L262.16,262.16M263.00,263.00L262.16,262.16M178.14,263.00L177.98,263.84M239.47,263.00L238.86,263.84M263.00,263.00L263.00,263.00M263.84,263.84L263.00,263.00M177.98,263.84L177.81,264.68M238.64,264.14L238.26,264.68M238.86,263.84L238.64,264.14M263.84,263.84L263.84,263.84M264.68,264.68L263.84,263.84M177.81,264.68L177.63,265.52M237.80,265.33L237.68,265.52M238.26,264.68L237.80,265.33M264.68,264.68L264.68,264.68M265.52,265.52L264.68,264.68M177.63,265.52L177.45,266.36M237.68,265.52L237.10,266.36M265.52,265.52L265.52,265.52M266.36,266.36L265.52,265.52M177.32,266.91L177.25,267.20M177.45,266.36L177.32,266.91M236.96,266.57L236.55,267.20M237.10,266.36L236.96,266.57M266.36,266.36L266.36,266.36M267.20,267.20L266.36,266.36M177.25,267.20L177.05,268.04M236.12,267.85L236.00,268.04M236.55,267.20L236.12,267.85M267.20,267.20L267.20,267.20M268.04,268.04L267.20,267.20M177.05,268.04L176.84,268.88M236.00,268.04L235.47,268.88M268.04,268.04L268.04,268.04M268.88,268.88L268.04,268.04M176.84,268.88L176.63,269.72M235.28,269.18L234.95,269.72M235.47,268.88L235.28,269.18M268.88,268.88L268.88,268.88M269.72,269.72L268.88,268.88M84.92,270.53L84.78,270.56M85.76,270.37L84.92,270.53M86.60,270.23L85.76,270.37M87.44,270.13L86.60,270.23M88.28,270.06L87.44,270.13M89.12,270.02L88.28,270.06M89.96,270.01L89.12,270.02M90.80,270.04L89.96,270.01M91.64,270.09L90.80,270.04M92.48,270.18L91.64,270.09M93.32,270.30L92.48,270.18M94.16,270.45L93.32,270.30M94.67,270.56L94.16,270.45M176.48,270.27L176.40,270.56M176.63,269.72L176.48,270.27M234.44,270.56L234.44,270.56M234.95,269.72L234.44,270.56M269.72,269.72L269.72,269.72M270.56,270.56L269.72,269.72M82.40,271.17L81.69,271.40M83.24,270.93L82.40,271.17M84.08,270.71L83.24,270.93M84.78,270.56L84.08,270.71M94.67,270.56L95.00,270.63M95.84,270.84L95.00,270.63M96.68,271.09L95.84,270.84M97.52,271.36L96.68,271.09M97.62,271.40L97.52,271.36M176.40,270.56L176.17,271.40M234.44,270.56L233.95,271.40M270.56,270.56L270.56,270.56M271.40,271.40L270.56,270.56M79.88,272.04L79.40,272.24M80.72,271.73L79.88,272.04M81.56,271.44L80.72,271.73M81.69,271.40L81.56,271.44M97.62,271.40L98.36,271.66M99.20,272.00L98.36,271.66M99.76,272.24L99.20,272.00M176.17,271.40L175.93,272.24M233.60,272.00L233.46,272.24M233.95,271.40L233.60,272.00M271.40,271.40L271.40,271.40M272.24,272.24L271.40,271.40M364.64,272.21L364.42,272.24M365.48,272.12L364.64,272.21M366.32,272.05L365.48,272.12M367.16,272.01L366.32,272.05M368.00,272.00L367.16,272.01M78.20,272.74L77.45,273.08M79.04,272.38L78.20,272.74M79.40,272.24L79.04,272.38M99.76,272.24L100.04,272.36M100.88,272.75L100.04,272.36M101.54,273.08L100.88,272.75M175.93,272.24L175.69,273.08M233.46,272.24L233.00,273.08M272.24,272.24L272.24,272.24M273.08,273.08L272.24,272.24M360.44,273.04L360.32,273.08M361.28,272.83L360.44,273.04M362.12,272.63L361.28,272.83M362.96,272.47L362.12,272.63M363.80,272.33L362.96,272.47M364.42,272.24L363.80,272.33M76.52,273.51L75.71,273.92M77.36,273.12L76.52,273.51M77.45,273.08L77.36,273.12M101.54,273.08L101.72,273.17M102.56,273.61L101.72,273.17M103.11,273.92L102.56,273.61M175.64,273.23L175.43,273.92M175.69,273.08L175.64,273.23M232.76,273.51L232.54,273.92M233.00,273.08L232.76,273.51M273.08,273.08L273.08,273.08M273.92,273.92L273.08,273.08M357.92,273.83L357.68,273.92M358.76,273.54L357.92,273.83M359.60,273.28L358.76,273.54M360.32,273.08L359.60,273.28M74.84,274.36L74.10,274.76M75.68,273.93L74.84,274.36M75.71,273.92L75.68,273.93M103.11,273.92L103.40,274.08M104.24,274.58L103.40,274.08M104.54,274.76L104.24,274.58M175.43,273.92L175.17,274.76M232.54,273.92L232.09,274.76M273.92,273.92L273.92,273.92M274.76,274.76L273.92,273.92M356.24,274.46L355.52,274.76M357.08,274.13L356.24,274.46M357.68,273.92L357.08,274.13M73.16,275.28L72.60,275.60M74.00,274.81L73.16,275.28M74.10,274.76L74.00,274.81M104.54,274.76L105.08,275.10M105.85,275.60L105.08,275.10M175.17,274.76L174.91,275.60M231.92,275.09L231.66,275.60M232.09,274.76L231.92,275.09M274.76,274.76L274.76,274.76M275.60,275.60L274.76,274.76M353.72,275.56L353.64,275.60M354.56,275.18L353.72,275.56M355.40,274.81L354.56,275.18M355.52,274.76L355.40,274.81M71.48,276.25L71.17,276.44M72.32,275.76L71.48,276.25M72.60,275.60L72.32,275.76M105.85,275.60L105.92,275.64M106.76,276.21L105.92,275.64M107.09,276.44L106.76,276.21M174.80,275.94L174.64,276.44M174.91,275.60L174.80,275.94M231.66,275.60L231.24,276.44M275.60,275.60L275.60,275.60M276.44,276.44L275.60,275.60M352.04,276.39L351.94,276.44M352.88,275.96L352.04,276.39M353.64,275.60L352.88,275.96M69.80,277.28L69.80,277.28M70.64,276.76L69.80,277.28M71.17,276.44L70.64,276.76M107.09,276.44L107.60,276.80M108.25,277.28L107.60,276.80M174.64,276.44L174.36,277.28M231.08,276.77L230.83,277.28M231.24,276.44L231.08,276.77M276.44,276.44L276.44,276.44M277.28,277.28L276.44,276.44M351.20,276.82L350.36,277.28M351.94,276.44L351.20,276.82M68.96,277.81L68.47,278.12M69.80,277.28L68.96,277.81M108.25,277.28L108.44,277.42M109.28,278.06L108.44,277.42M109.36,278.12L109.28,278.06M174.36,277.28L174.08,278.12M230.83,277.28L230.44,278.12M277.28,277.28L277.28,277.28M278.12,278.12L277.28,277.28M349.52,277.75L348.88,278.12M350.36,277.28L349.52,277.75M350.36,277.28L350.36,277.28M67.28,278.90L67.19,278.96M68.12,278.35L67.28,278.90M68.47,278.12L68.12,278.35M109.36,278.12L110.12,278.72M110.42,278.96L110.12,278.72M173.96,278.48L173.80,278.96M174.08,278.12L173.96,278.48M230.24,278.55L230.05,278.96M230.44,278.12L230.24,278.55M278.12,278.12L278.12,278.12M278.96,278.96L278.12,278.12M347.84,278.73L347.47,278.96M348.68,278.24L347.84,278.73M348.88,278.12L348.68,278.24M66.44,279.46L65.93,279.80M67.19,278.96L66.44,279.46M110.42,278.96L110.96,279.40M111.43,279.80L110.96,279.40M173.80,278.96L173.51,279.80M230.05,278.96L229.68,279.80M278.96,278.96L278.96,278.96M279.80,279.80L278.96,278.96M346.16,279.78L346.12,279.80M347.00,279.25L346.16,279.78M347.47,278.96L347.00,279.25M64.76,280.60L64.71,280.64M65.60,280.03L64.76,280.60M65.93,279.80L65.60,280.03M111.43,279.80L111.80,280.11M112.41,280.64L111.80,280.11M173.51,279.80L173.21,280.64M229.40,280.46L229.32,280.64M229.68,279.80L229.40,280.46M279.80,279.80L279.80,279.80M280.64,280.64L279.80,279.80M345.32,280.31L344.83,280.64M346.12,279.80L345.32,280.31M63.92,281.19L63.51,281.48M64.71,280.64L63.92,281.19M112.41,280.64L112.64,280.84M113.35,281.48L112.64,280.84M173.12,280.89L172.91,281.48M173.21,280.64L173.12,280.89M229.32,280.64L228.97,281.48M280.64,280.64L280.64,280.64M281.48,281.48L280.64,280.64M343.64,281.43L343.57,281.48M344.48,280.87L343.64,281.43M344.83,280.64L344.48,280.87M63.08,281.78L62.32,282.32M63.51,281.48L63.08,281.78M113.35,281.48L113.48,281.59M114.27,282.32L113.48,281.59M172.91,281.48L172.61,282.32M228.97,281.48L228.64,282.32M281.48,281.48L281.48,281.48M282.32,282.32L281.48,281.48M342.80,282.01L342.35,282.32M343.57,281.48L342.80,282.01M61.40,282.98L61.15,283.16M62.24,282.38L61.40,282.98M62.32,282.32L62.24,282.38M114.27,282.32L114.32,282.37M115.15,283.16L114.32,282.37M172.61,282.32L172.31,283.16M228.56,282.52L228.31,283.16M228.64,282.32L228.56,282.52M282.32,282.32L282.32,282.32M283.16,283.16L282.32,282.32M341.96,282.59L341.16,283.16M342.35,282.32L341.96,282.59M60.56,283.59L60.00,284.00M61.15,283.16L60.56,283.59M115.15,283.16L115.16,283.17M116.00,284.00L115.16,283.17M172.28,283.23L172.00,284.00M172.31,283.16L172.28,283.23M228.31,283.16L228.00,284.00M283.16,283.16L283.16,283.16M284.00,284.00L283.16,283.16M340.28,283.80L340.00,284.00M341.12,283.19L340.28,283.80M341.16,283.16L341.12,283.19M58.88,284.82L58.86,284.84M59.72,284.21L58.88,284.82M60.00,284.00L59.72,284.21M116.00,284.00L116.00,284.00M116.83,284.84L116.00,284.00M172.00,284.00L171.69,284.84M227.72,284.78L227.70,284.84M228.00,284.00L227.72,284.78M284.00,284.00L284.00,284.00M284.84,284.84L284.00,284.00M339.44,284.41L338.86,284.84M340.00,284.00L339.44,284.41M58.04,285.45L57.72,285.68M58.86,284.84L58.04,285.45M116.83,284.84L116.84,284.85M117.63,285.68L116.84,284.85M171.44,285.52L171.38,285.68M171.69,284.84L171.44,285.52M227.70,284.84L227.41,285.68M284.84,284.84L284.84,284.84M285.68,285.68L284.84,284.84M337.76,285.67L337.75,285.68M338.60,285.04L337.76,285.67M338.86,284.84L338.60,285.04M57.20,286.07L56.60,286.52M57.72,285.68L57.20,286.07M117.63,285.68L117.68,285.73M118.41,286.52L117.68,285.73M171.38,285.68L171.07,286.52M227.41,285.68L227.13,286.52M285.68,285.68L285.68,285.68M286.52,286.52L285.68,285.68M336.92,286.32L336.66,286.52M337.75,285.68L336.92,286.32M55.52,287.33L55.48,287.36M56.36,286.70L55.52,287.33M56.60,286.52L56.36,286.70M118.41,286.52L118.52,286.65M119.16,287.36L118.52,286.65M171.07,286.52L170.76,287.36M226.88,287.30L226.86,287.36M227.13,286.52L226.88,287.30M286.52,286.52L286.52,286.52M287.36,287.36L286.52,286.52M336.08,286.97L335.58,287.36M336.66,286.52L336.08,286.97M54.68,287.96L54.36,288.20M55.48,287.36L54.68,287.96M119.16,287.36L119.36,287.59M119.89,288.20L119.36,287.59M170.60,287.80L170.45,288.20M170.76,287.36L170.60,287.80M226.86,287.36L226.60,288.20M287.36,287.36L287.36,287.36M288.20,288.20L287.36,287.36M335.24,287.63L334.52,288.20M335.58,287.36L335.24,287.63M53.84,288.60L53.25,289.04M54.36,288.20L53.84,288.60M119.89,288.20L120.20,288.57M120.60,289.04L120.20,288.57M170.45,288.20L170.14,289.04M226.60,288.20L226.36,289.04M288.20,288.20L288.20,288.20M289.04,289.04L288.20,288.20M333.56,288.97L333.48,289.04M334.40,288.30L333.56,288.97M334.52,288.20L334.40,288.30M52.16,289.86L52.13,289.88M53.00,289.23L52.16,289.86M53.25,289.04L53.00,289.23M120.60,289.04L121.04,289.58M121.28,289.88L121.04,289.58M170.14,289.04L169.84,289.88M226.36,289.04L226.12,289.88M289.04,289.04L289.04,289.04M289.88,289.88L289.04,289.04M332.72,289.66L332.45,289.88M333.48,289.04L332.72,289.66M51.32,290.49L51.01,290.72M52.13,289.88L51.32,290.49M121.28,289.88L121.88,290.64M121.94,290.72L121.88,290.64M169.76,290.10L169.53,290.72M169.84,289.88L169.76,290.10M226.04,290.18L225.90,290.72M226.12,289.88L226.04,290.18M289.88,289.88L289.88,289.88M290.72,290.72L289.88,289.88M331.88,290.35L331.43,290.72M332.45,289.88L331.88,290.35M50.48,291.12L49.89,291.56M51.01,290.72L50.48,291.12M121.94,290.72L122.58,291.56M169.53,290.72L169.23,291.56M225.90,290.72L225.68,291.56M290.72,290.72L290.72,290.72M291.56,291.56L290.72,290.72M331.04,291.05L330.43,291.56M331.43,290.72L331.04,291.05M48.80,292.37L48.76,292.40M49.64,291.75L48.80,292.37M49.89,291.56L49.64,291.75M122.58,291.56L122.72,291.75M123.20,292.40L122.72,291.75M169.23,291.56L168.94,292.40M225.68,291.56L225.48,292.40M291.56,291.56L291.56,291.56M292.40,292.40L291.56,291.56M330.20,291.75L329.43,292.40M330.43,291.56L330.20,291.75M47.96,292.99L47.61,293.24M48.76,292.40L47.96,292.99M123.20,292.40L123.56,292.91M123.79,293.24L123.56,292.91M168.92,292.45L168.65,293.24M168.94,292.40L168.92,292.45M225.48,292.40L225.29,293.24M292.40,292.40L292.40,292.40M293.24,293.24L292.40,292.40M328.52,293.18L328.45,293.24M329.36,292.46L328.52,293.18M329.43,292.40L329.36,292.46M47.12,293.60L46.45,294.08M47.61,293.24L47.12,293.60M123.79,293.24L124.36,294.08M168.65,293.24L168.36,294.08M225.20,293.64L225.10,294.08M225.29,293.24L225.20,293.64M293.24,293.24L293.24,293.24M294.08,294.08L293.24,293.24M327.68,293.91L327.48,294.08M328.45,293.24L327.68,293.91M45.44,294.80L45.26,294.92M46.28,294.20L45.44,294.80M46.45,294.08L46.28,294.20M124.36,294.08L124.40,294.15M124.90,294.92L124.40,294.15M168.36,294.08L168.08,294.92M225.10,294.08L224.93,294.92M294.08,294.08L294.08,294.08M294.92,294.92L294.08,294.08M326.84,294.64L326.51,294.92M327.48,294.08L326.84,294.64M44.60,295.38L44.04,295.76M45.26,294.92L44.60,295.38M124.90,294.92L125.24,295.46M125.42,295.76L125.24,295.46M168.08,294.93L167.81,295.76M168.08,294.92L168.08,294.93M224.93,294.92L224.77,295.76M294.92,294.92L294.92,294.92M295.76,295.76L294.92,294.92M326.00,295.38L325.56,295.76M326.51,294.92L326.00,295.38M42.92,296.51L42.77,296.60M43.76,295.95L42.92,296.51M44.04,295.76L43.76,295.95M125.42,295.76L125.92,296.60M167.81,295.76L167.55,296.60M224.77,295.76L224.62,296.60M295.76,295.76L295.76,295.76M296.60,296.60L295.76,295.76M325.16,296.12L324.61,296.60M325.56,295.76L325.16,296.12M42.08,297.05L41.44,297.44M42.77,296.60L42.08,297.05M125.92,296.60L126.08,296.89M126.39,297.44L126.08,296.89M167.55,296.60L167.30,297.44M224.62,296.60L224.47,297.44M296.60,296.60L296.60,296.60M297.44,297.44L296.60,296.60M324.32,296.87L323.67,297.44M324.61,296.60L324.32,296.87M40.40,298.06L40.00,298.28M41.24,297.57L40.40,298.06M41.44,297.44L41.24,297.57M126.39,297.44L126.83,298.28M167.24,297.64L167.05,298.28M167.30,297.44L167.24,297.64M224.36,298.16L224.34,298.28M224.47,297.44L224.36,298.16M297.44,297.44L297.44,297.44M298.28,298.28L297.44,297.44M323.48,297.62L322.74,298.28M323.67,297.44L323.48,297.62M38.72,298.96L38.38,299.12M39.56,298.53L38.72,298.96M40.00,298.28L39.56,298.53M126.83,298.28L126.92,298.46M127.25,299.12L126.92,298.46M167.05,298.28L166.82,299.12M224.34,298.28L224.22,299.12M298.28,298.28L298.28,298.28M299.12,299.12L298.28,298.28M322.64,298.38L321.82,299.12M322.74,298.28L322.64,298.38M37.04,299.73L36.41,299.96M37.88,299.37L37.04,299.73M38.38,299.12L37.88,299.37M127.25,299.12L127.64,299.96M166.82,299.12L166.60,299.96M224.22,299.12L224.10,299.96M299.12,299.12L299.12,299.12M299.96,299.96L299.12,299.12M320.96,299.91L320.91,299.96M321.80,299.14L320.96,299.91M321.82,299.12L321.80,299.14M32.84,300.77L32.00,300.80M33.68,300.68L32.84,300.77M34.52,300.53L33.68,300.68M35.36,300.31L34.52,300.53M36.20,300.04L35.36,300.31M36.41,299.96L36.20,300.04M127.64,299.96L127.76,300.24M128.00,300.80L127.76,300.24M166.60,299.96L166.40,300.80M224.10,299.96L224.00,300.80M299.96,299.96L299.96,299.96M300.80,300.80L299.96,299.96M320.12,300.69L320.00,300.80M320.91,299.96L320.12,300.69M32.00,300.80L32.00,300.80M128.00,300.80L128.34,301.64M166.40,300.80L166.21,301.64M166.40,300.80L166.40,300.80M224.00,300.80L223.90,301.64M300.80,300.80L300.80,300.80M301.64,301.64L300.80,300.80M319.28,301.48L319.09,301.64M320.00,300.80L319.28,301.48M128.34,301.64L128.60,302.38M128.64,302.48L128.60,302.38M166.21,301.64L166.03,302.48M223.90,301.64L223.82,302.48M301.64,301.64L301.64,301.64M302.48,302.48L301.64,301.64M318.44,302.26L318.19,302.48M319.09,301.64L318.44,302.26M128.64,302.48L128.91,303.32M166.03,302.48L165.87,303.32M223.82,302.48L223.74,303.32M302.48,302.48L302.48,302.48M303.32,303.32L302.48,302.48M317.60,303.06L317.30,303.32M318.19,302.48L317.60,303.06M128.91,303.32L129.16,304.16M165.87,303.32L165.73,304.16M223.74,303.32L223.68,304.16M303.32,303.32L303.32,303.32M304.16,304.16L303.32,303.32M316.76,303.86L316.42,304.16M317.30,303.32L316.76,303.86M129.16,304.16L129.37,305.00M165.73,304.16L165.60,305.00M223.68,304.16L223.62,305.00M304.16,304.16L304.16,304.16M305.00,305.00L304.16,304.16M315.92,304.66L315.54,305.00M316.42,304.16L315.92,304.66M129.37,305.00L129.44,305.33M129.55,305.84L129.44,305.33M165.56,305.33L165.49,305.84M165.60,305.00L165.56,305.33M223.62,305.00L223.57,305.84M305.00,305.00L305.00,305.00M305.84,305.84L305.00,305.00M315.08,305.47L314.66,305.84M315.54,305.00L315.08,305.47M129.55,305.84L129.70,306.68M165.49,305.84L165.40,306.68M223.57,305.84L223.53,306.68M305.84,305.84L305.84,305.84M306.68,306.68L305.84,305.84M314.24,306.29L313.79,306.68M314.66,305.84L314.24,306.29M129.70,306.68L129.82,307.52M165.40,306.68L165.33,307.52M223.52,306.88L223.50,307.52M223.53,306.68L223.52,306.88M306.68,306.68L306.68,306.68M307.52,307.52L306.68,306.68M313.40,307.11L312.92,307.52M313.79,306.68L313.40,307.11M129.82,307.52L129.91,308.36M165.33,307.52L165.28,308.36M223.50,307.52L223.47,308.36M307.52,307.52L307.52,307.52M308.36,308.36L307.52,307.52M312.56,307.95L312.06,308.36M312.92,307.52L312.56,307.95M129.91,308.36L129.96,309.20M165.28,308.36L165.25,309.20M223.47,308.36L223.46,309.20M308.36,308.36L308.36,308.36M309.20,309.20L308.36,308.36M311.72,308.80L311.17,309.20M312.06,308.36L311.72,308.80M129.96,309.20L129.99,310.04M165.25,309.20L165.23,310.04M223.46,309.20L223.45,310.04M309.20,309.20L309.20,309.20M310.04,310.04L309.20,309.20M310.88,309.71L310.04,310.04M311.17,309.20L310.88,309.71M129.99,310.04L129.98,310.88M165.23,310.04L165.24,310.88M223.45,310.04L223.45,310.88M310.04,310.04L309.71,310.88M310.04,310.04L310.88,310.88M310.88,310.88L310.88,310.88M129.98,310.88L129.94,311.72M165.24,310.88L165.26,311.72M223.45,310.88L223.46,311.72M309.20,311.17L308.80,311.72M309.71,310.88L309.20,311.17M310.88,310.88L311.72,311.72M311.72,311.72L311.72,311.72M129.94,311.72L129.87,312.56M165.26,311.72L165.30,312.56M223.46,311.72L223.48,312.56M308.36,312.06L307.95,312.56M308.80,311.72L308.36,312.06M311.72,311.72L312.56,312.56M312.56,312.56L312.56,312.56M129.87,312.56L129.77,313.40M165.30,312.56L165.37,313.40M223.48,312.56L223.51,313.40M307.52,312.92L307.11,313.40M307.95,312.56L307.52,312.92M312.56,312.56L313.40,313.40M313.40,313.40L313.40,313.40M129.77,313.40L129.63,314.24M165.37,313.40L165.44,314.24M223.51,313.40L223.52,313.61M223.55,314.24L223.52,313.61M306.68,313.79L306.29,314.24M307.11,313.40L306.68,313.79M313.40,313.40L314.24,314.24M314.24,314.24L314.24,314.24M129.63,314.24L129.47,315.08M165.44,314.24L165.54,315.08M223.55,314.24L223.59,315.08M305.84,314.66L305.47,315.08M306.29,314.24L305.84,314.66M314.24,314.24L315.08,315.08M315.08,315.08L315.08,315.08M129.44,315.22L129.29,315.92M129.47,315.08L129.44,315.22M165.54,315.08L165.56,315.22M165.65,315.92L165.56,315.22M223.59,315.08L223.64,315.92M305.00,315.54L304.66,315.92M305.47,315.08L305.00,315.54M315.08,315.08L315.92,315.92M315.92,315.92L315.92,315.92M129.29,315.92L129.07,316.76M165.65,315.92L165.78,316.76M223.64,315.92L223.70,316.76M304.16,316.42L303.86,316.76M304.66,315.92L304.16,316.42M315.92,315.92L316.76,316.76M316.76,316.76L316.76,316.76M129.07,316.76L128.83,317.60M165.78,316.76L165.92,317.60M223.70,316.76L223.77,317.60M303.32,317.30L303.06,317.60M303.86,316.76L303.32,317.30M316.76,316.76L317.60,317.60M317.60,317.60L317.60,317.60M128.60,318.31L128.56,318.44M128.83,317.60L128.60,318.31M165.92,317.60L166.08,318.44M223.77,317.60L223.84,318.44M302.48,318.19L302.26,318.44M303.06,317.60L302.48,318.19M317.60,317.60L318.44,318.44M318.44,318.44L318.44,318.44M128.56,318.44L128.27,319.28M166.08,318.44L166.25,319.28M223.84,318.44L223.92,319.28M301.64,319.09L301.48,319.28M302.26,318.44L301.64,319.09M318.44,318.44L319.28,319.28M319.28,319.28L319.28,319.28M32.84,320.03L32.00,320.00M33.55,320.12L32.84,320.03M128.27,319.28L127.96,320.12M166.25,319.28L166.40,320.00M166.43,320.12L166.40,320.00M223.92,319.28L224.01,320.12M300.80,320.00L300.69,320.12M301.48,319.28L300.80,320.00M319.28,319.28L320.12,320.12M320.12,320.12L320.12,320.12M33.55,320.12L33.68,320.14M34.52,320.30L33.68,320.14M35.36,320.53L34.52,320.30M36.20,320.82L35.36,320.53M36.53,320.96L36.20,320.82M127.76,320.60L127.62,320.96M127.96,320.12L127.76,320.60M166.43,320.12L166.62,320.96M224.01,320.12L224.11,320.96M299.96,320.91L299.91,320.96M300.69,320.12L299.96,320.91M320.12,320.12L320.96,320.96M320.96,320.96L320.96,320.96M36.53,320.96L37.04,321.16M37.88,321.55L37.04,321.16M38.34,321.80L37.88,321.55M127.62,320.96L127.26,321.80M166.62,320.96L166.82,321.80M224.11,320.96L224.21,321.80M299.91,320.96L299.14,321.80M320.96,320.96L321.80,321.80M321.80,321.80L321.80,321.80M38.34,321.80L38.72,321.99M39.56,322.47L38.72,321.99M39.82,322.64L39.56,322.47M126.92,322.55L126.88,322.64M127.26,321.80L126.92,322.55M166.82,321.80L167.03,322.64M224.21,321.80L224.33,322.64M299.12,321.82L298.38,322.64M299.14,321.80L299.12,321.82M321.80,321.80L322.64,322.64M322.64,322.64L322.64,322.64M39.82,322.64L40.40,322.99M41.15,323.48L40.40,322.99M126.88,322.64L126.49,323.48M167.03,322.64L167.24,323.46M167.24,323.48L167.24,323.46M224.33,322.64L224.36,322.88M224.44,323.48L224.36,322.88M298.28,322.74L297.62,323.48M298.38,322.64L298.28,322.74M322.64,322.64L323.48,323.48M323.48,323.48L323.48,323.48M41.15,323.48L41.24,323.54M42.08,324.11L41.24,323.54M42.36,324.32L42.08,324.11M126.08,324.29L126.07,324.32M126.49,323.48L126.08,324.29M167.24,323.48L167.47,324.32M224.44,323.48L224.57,324.32M297.44,323.67L296.87,324.32M297.62,323.48L297.44,323.67M323.48,323.48L324.32,324.32M324.32,324.32L324.32,324.32M42.36,324.32L42.92,324.72M43.51,325.16L42.92,324.72M126.07,324.32L125.64,325.16M167.47,324.32L167.70,325.16M224.57,324.32L224.70,325.16M296.60,324.61L296.12,325.16M296.87,324.32L296.60,324.61M324.32,324.32L325.16,325.16M325.16,325.16L325.16,325.16M43.51,325.16L43.76,325.34M44.60,325.99L43.76,325.34M44.61,326.00L44.60,325.99M125.24,325.90L125.19,326.00M125.64,325.16L125.24,325.90M167.70,325.16L167.93,326.00M224.70,325.16L224.84,326.00M295.76,325.56L295.38,326.00M296.12,325.16L295.76,325.56M325.16,325.16L326.00,326.00M326.00,326.00L326.00,326.00M44.61,326.00L45.44,326.65M45.66,326.84L45.44,326.65M125.19,326.00L124.72,326.84M167.93,326.00L168.08,326.50M168.18,326.84L168.08,326.50M224.84,326.00L224.99,326.84M294.92,326.51L294.64,326.84M295.38,326.00L294.92,326.51M326.00,326.00L326.84,326.84M326.84,326.84L326.84,326.84M45.66,326.84L46.28,327.34M46.69,327.68L46.28,327.34M124.40,327.40L124.24,327.68M124.72,326.84L124.40,327.40M168.18,326.84L168.42,327.68M224.99,326.84L225.14,327.68M294.08,327.48L293.91,327.68M294.64,326.84L294.08,327.48M326.84,326.84L327.68,327.68M327.68,327.68L327.68,327.68M46.69,327.68L47.12,328.03M47.69,328.52L47.12,328.03M124.24,327.68L123.75,328.52M168.42,327.68L168.67,328.52M225.14,327.68L225.20,327.99M225.30,328.52L225.20,327.99M293.24,328.45L293.18,328.52M293.91,327.68L293.24,328.45M327.68,327.68L328.52,328.52M328.52,328.52L328.52,328.52M47.69,328.52L47.96,328.74M48.67,329.36L47.96,328.74M123.56,328.83L123.24,329.36M123.75,328.52L123.56,328.83M168.67,328.52L168.92,329.36M225.30,328.52L225.46,329.36M293.18,328.52L292.46,329.36M328.52,328.52L329.36,329.36M329.36,329.36L329.36,329.36M48.67,329.36L48.80,329.47M49.63,330.20L48.80,329.47M123.24,329.36L122.72,330.20M168.92,329.36L168.92,329.38M169.16,330.20L168.92,329.38M225.46,329.36L225.64,330.20M292.40,329.43L291.75,330.20M292.46,329.36L292.40,329.43M329.36,329.36L330.20,330.20M330.20,330.20L330.20,330.20M49.63,330.20L49.64,330.21M50.48,330.95L49.64,330.21M50.58,331.04L50.48,330.95M122.72,330.20L122.19,331.04M122.72,330.20L122.72,330.20M169.16,330.20L169.42,331.04M225.64,330.20L225.81,331.04M291.56,330.43L291.05,331.04M291.75,330.20L291.56,330.43M330.20,330.20L331.04,331.04M331.04,331.04L331.04,331.04M50.58,331.04L51.32,331.71M51.51,331.88L51.32,331.71M121.88,331.53L121.65,331.88M122.19,331.04L121.88,331.53M169.42,331.04L169.67,331.88M225.81,331.04L226.00,331.88M290.72,331.43L290.35,331.88M291.05,331.04L290.72,331.43M331.04,331.04L331.88,331.88M331.88,331.88L331.88,331.88M51.51,331.88L52.16,332.47M52.43,332.72L52.16,332.47M121.65,331.88L121.10,332.72M169.67,331.88L169.76,332.19M169.92,332.72L169.76,332.19M226.00,331.88L226.04,332.08M226.18,332.72L226.04,332.08M289.88,332.45L289.66,332.72M290.35,331.88L289.88,332.45M331.88,331.88L332.72,332.72M332.72,332.72L332.72,332.72M52.43,332.72L53.00,333.25M53.33,333.56L53.00,333.25M121.04,332.81L120.54,333.56M121.10,332.72L121.04,332.81M169.92,332.72L170.17,333.56M226.18,332.72L226.38,333.56M289.04,333.48L288.97,333.56M289.66,332.72L289.04,333.48M332.72,332.72L333.56,333.56M333.56,333.56L333.56,333.56M53.33,333.56L53.84,334.03M54.23,334.40L53.84,334.03M120.20,334.07L119.97,334.40M120.54,333.56L120.20,334.07M170.17,333.56L170.42,334.40M226.38,333.56L226.57,334.40M288.97,333.56L288.30,334.40M333.56,333.56L334.40,334.40M334.40,334.40L334.40,334.40M54.23,334.40L54.68,334.82M55.12,335.24L54.68,334.82M119.97,334.40L119.40,335.24M170.42,334.40L170.60,335.03M170.66,335.24L170.60,335.03M226.57,334.40L226.78,335.24M288.20,334.52L287.63,335.24M288.30,334.40L288.20,334.52M334.40,334.40L335.24,335.24M335.24,335.24L335.24,335.24M55.12,335.24L55.52,335.62M56.00,336.08L55.52,335.62M119.36,335.29L118.81,336.08M119.40,335.24L119.36,335.29M170.66,335.24L170.91,336.08M226.78,335.24L226.88,335.66M226.98,336.08L226.88,335.66M287.36,335.58L286.97,336.08M287.63,335.24L287.36,335.58M335.24,335.24L336.08,336.08M336.08,336.08L336.08,336.08M56.00,336.08L56.36,336.43M56.87,336.92L56.36,336.43M118.52,336.49L118.22,336.92M118.81,336.08L118.52,336.49M170.91,336.08L171.15,336.92M226.98,336.08L227.19,336.92M286.52,336.66L286.32,336.92M286.97,336.08L286.52,336.66M336.08,336.08L336.92,336.92M336.92,336.92L336.92,336.92M56.87,336.92L57.20,337.24M57.73,337.76L57.20,337.24M117.68,337.68L117.62,337.76M118.22,336.92L117.68,337.68M171.15,336.92L171.38,337.76M227.19,336.92L227.41,337.76M285.68,337.75L285.67,337.76M286.32,336.92L285.68,337.75M336.92,336.92L337.76,337.76M337.76,337.76L337.76,337.76M57.73,337.76L58.04,338.06M58.59,338.60L58.04,338.06M117.62,337.76L117.02,338.60M171.38,337.76L171.44,337.96M171.62,338.60L171.44,337.96M227.41,337.76L227.63,338.60M285.67,337.76L285.04,338.60M337.76,337.76L338.60,338.60M338.60,338.60L338.60,338.60M58.59,338.60L58.88,338.89M59.44,339.44L58.88,338.89M116.84,338.85L116.41,339.44M117.02,338.60L116.84,338.85M171.62,338.60L171.85,339.44M227.63,338.60L227.72,338.95M227.85,339.44L227.72,338.95M284.84,338.86L284.41,339.44M285.04,338.60L284.84,338.86M338.60,338.60L339.44,339.44M339.44,339.44L339.44,339.44M59.44,339.44L59.72,339.72M60.28,340.28L59.72,339.72M116.00,340.00L115.79,340.28M116.41,339.44L116.00,340.00M171.85,339.44L172.07,340.28M227.85,339.44L228.08,340.28M284.00,340.00L283.80,340.28M284.41,339.44L284.00,340.00M339.44,339.44L340.28,340.28M340.28,340.28L340.28,340.28M60.28,340.28L60.56,340.56M61.11,341.12L60.56,340.56M115.79,340.28L115.18,341.12M172.07,340.28L172.28,341.06M172.30,341.12L172.28,341.06M228.08,340.28L228.30,341.12M283.80,340.28L283.19,341.12M340.28,340.28L341.12,341.12M341.12,341.12L341.12,341.12M61.11,341.12L61.40,341.41M61.94,341.96L61.40,341.41M115.16,341.14L114.55,341.96M115.18,341.12L115.16,341.14M172.30,341.12L172.51,341.96M228.30,341.12L228.53,341.96M283.16,341.16L282.59,341.96M283.19,341.12L283.16,341.16M341.12,341.12L341.96,341.96M341.96,341.96L341.96,341.96M61.94,341.96L62.24,342.27M62.76,342.80L62.24,342.27M114.32,342.28L113.93,342.80M114.55,341.96L114.32,342.28M172.51,341.96L172.72,342.80M228.53,341.96L228.56,342.06M228.76,342.80L228.56,342.06M282.32,342.35L282.01,342.80M282.59,341.96L282.32,342.35M341.96,341.96L342.80,342.80M342.80,342.80L342.80,342.80M62.76,342.80L63.08,343.13M63.57,343.64L63.08,343.13M113.48,343.40L113.30,343.64M113.93,342.80L113.48,343.40M172.72,342.80L172.93,343.64M228.76,342.80L228.99,343.64M281.48,343.57L281.43,343.64M282.01,342.80L281.48,343.57M342.80,342.80L343.64,343.64M343.64,343.64L343.64,343.64M63.57,343.64L63.92,344.00M64.38,344.48L63.92,344.00M113.30,343.64L112.67,344.48M172.93,343.64L173.12,344.44M173.13,344.48L173.12,344.44M228.99,343.64L229.23,344.48M281.43,343.64L280.87,344.48M343.64,343.64L344.48,344.48M344.48,344.48L344.48,344.48M64.38,344.48L64.76,344.88M65.18,345.32L64.76,344.88M112.64,344.52L112.04,345.32M112.67,344.48L112.64,344.52M173.13,344.48L173.32,345.32M229.23,344.48L229.40,345.11M229.46,345.32L229.40,345.11M280.64,344.83L280.31,345.32M280.87,344.48L280.64,344.83M344.48,344.48L345.32,345.32M345.32,345.32L345.32,345.32M65.18,345.32L65.60,345.77M65.97,346.16L65.60,345.77M111.80,345.64L111.40,346.16M112.04,345.32L111.80,345.64M173.32,345.32L173.51,346.16M229.46,345.32L229.69,346.16M279.80,346.12L279.78,346.16M280.31,345.32L279.80,346.12M345.32,345.32L346.16,346.16M346.16,346.16L346.16,346.16M65.97,346.16L66.44,346.67M66.75,347.00L66.44,346.67M110.96,346.75L110.77,347.00M111.40,346.16L110.96,346.75M173.51,346.16L173.70,347.00M229.69,346.16L229.92,347.00M279.78,346.16L279.25,347.00M346.16,346.16L347.00,347.00M347.00,347.00L347.00,347.00M66.75,347.00L67.28,347.57M67.53,347.84L67.28,347.57M110.77,347.00L110.14,347.84M173.70,347.00L173.87,347.84M229.92,347.00L230.16,347.84M278.96,347.47L278.73,347.84M279.25,347.00L278.96,347.47M347.00,347.00L347.84,347.84M347.84,347.84L347.84,347.84M67.53,347.84L68.12,348.49M68.29,348.68L68.12,348.49M110.12,347.87L109.51,348.68M110.14,347.84L110.12,347.87M173.87,347.84L173.96,348.27M174.04,348.68L173.96,348.27M230.16,347.84L230.24,348.15M230.38,348.68L230.24,348.15M278.73,347.84L278.24,348.68M347.84,347.84L348.68,348.68M348.68,348.68L348.68,348.68M68.29,348.68L68.96,349.42M69.05,349.52L68.96,349.42M109.28,348.99L108.88,349.52M109.51,348.68L109.28,348.99M174.04,348.68L174.21,349.52M230.38,348.68L230.61,349.52M278.12,348.88L277.75,349.52M278.24,348.68L278.12,348.88M348.68,348.68L349.52,349.52M349.52,349.52L349.52,349.52M69.05,349.52L69.79,350.36M108.44,350.11L108.25,350.36M108.88,349.52L108.44,350.11M174.21,349.52L174.36,350.36M230.61,349.52L230.83,350.36M277.75,349.52L277.28,350.36M349.52,349.52L350.36,350.36M350.36,350.36L350.36,350.36M69.79,350.36L69.80,350.37M70.53,351.20L69.80,350.37M108.25,350.36L107.63,351.20M174.36,350.36L174.51,351.20M230.83,350.36L231.05,351.20M277.28,350.36L276.82,351.20M277.28,350.36L277.28,350.36M350.36,350.36L351.20,351.20M351.20,351.20L351.20,351.20M70.53,351.20L70.64,351.33M71.26,352.04L70.64,351.33M107.60,351.24L107.01,352.04M107.63,351.20L107.60,351.24M174.51,351.20L174.66,352.04M231.05,351.20L231.08,351.31M231.27,352.04L231.08,351.31M276.44,351.94L276.39,352.04M276.82,351.20L276.44,351.94M351.20,351.20L352.04,352.04M352.04,352.04L352.04,352.04M71.26,352.04L71.48,352.31M71.97,352.88L71.48,352.31M106.76,352.39L106.40,352.88M107.01,352.04L106.76,352.39M174.66,352.04L174.79,352.88M231.27,352.04L231.48,352.88M276.39,352.04L275.96,352.88M352.04,352.04L352.88,352.88M352.88,352.88L352.88,352.88M71.97,352.88L72.32,353.31M72.66,353.72L72.32,353.31M105.92,353.55L105.80,353.72M106.40,352.88L105.92,353.55M174.79,352.88L174.80,352.93M174.92,353.72L174.80,352.93M231.48,352.88L231.68,353.72M275.60,353.64L275.56,353.72M275.96,352.88L275.60,353.64M352.88,352.88L353.72,353.72M353.72,353.72L353.72,353.72M72.66,353.72L73.16,354.34M73.35,354.56L73.16,354.34M105.80,353.72L105.20,354.56M174.92,353.72L175.04,354.56M231.68,353.72L231.88,354.56M275.56,353.72L275.18,354.56M353.72,353.72L354.56,354.56M354.56,354.56L354.56,354.56M73.35,354.56L74.00,355.39M74.01,355.40L74.00,355.39M105.08,354.74L104.62,355.40M105.20,354.56L105.08,354.74M175.04,354.56L175.16,355.40M231.88,354.56L231.92,354.75M232.07,355.40L231.92,354.75M275.18,354.56L274.81,355.40M354.56,354.56L355.40,355.40M355.40,355.40L355.40,355.40M74.01,355.40L74.66,356.24M104.24,355.96L104.05,356.24M104.62,355.40L104.24,355.96M175.16,355.40L175.27,356.24M232.07,355.40L232.25,356.24M274.76,355.52L274.46,356.24M274.81,355.40L274.76,355.52M355.40,355.40L356.24,356.24M356.24,356.24L356.24,356.24M74.66,356.24L74.84,356.49M75.28,357.08L74.84,356.49M104.05,356.24L103.49,357.08M175.27,356.24L175.37,357.08M232.25,356.24L232.42,357.08M274.46,356.24L274.13,357.08M356.24,356.24L357.08,357.08M357.08,357.08L357.08,357.08M75.28,357.08L75.68,357.64M75.89,357.92L75.68,357.64M103.40,357.23L102.95,357.92M103.49,357.08L103.40,357.23M175.37,357.08L175.46,357.92M232.42,357.08L232.59,357.92M273.92,357.68L273.83,357.92M274.13,357.08L273.92,357.68M357.08,357.08L357.92,357.92M357.92,357.92L357.92,357.92M75.89,357.92L76.46,358.76M102.56,358.56L102.43,358.76M102.95,357.92L102.56,358.56M175.46,357.92L175.55,358.76M232.59,357.92L232.74,358.76M273.83,357.92L273.54,358.76M357.92,357.92L358.76,358.76M358.76,358.76L358.76,358.76M76.46,358.76L76.52,358.85M77.01,359.60L76.52,358.85M102.43,358.76L101.94,359.60M175.55,358.76L175.62,359.60M232.74,358.76L232.76,358.88M232.88,359.60L232.76,358.88M273.54,358.76L273.28,359.60M358.76,358.76L359.60,359.60M359.60,359.60L359.60,359.60M77.01,359.60L77.36,360.18M77.53,360.44L77.36,360.18M101.72,360.00L101.47,360.44M101.94,359.60L101.72,360.00M175.62,359.60L175.64,359.78M175.70,360.44L175.64,359.78M232.88,359.60L233.02,360.44M273.08,360.32L273.04,360.44M273.28,359.60L273.08,360.32M359.60,359.60L360.44,360.44M360.44,360.44L360.44,360.44M77.53,360.44L78.01,361.28M101.47,360.44L101.04,361.28M175.70,360.44L175.76,361.28M233.02,360.44L233.14,361.28M273.04,360.44L272.83,361.28M360.44,360.44L361.28,361.28M361.28,361.28L361.28,361.28M78.01,361.28L78.20,361.66M78.45,362.12L78.20,361.66M100.88,361.62L100.63,362.12M101.04,361.28L100.88,361.62M175.76,361.28L175.82,362.12M233.14,361.28L233.24,362.12M272.83,361.28L272.63,362.12M361.28,361.28L362.12,362.12M362.12,362.12L362.12,362.12M78.45,362.12L78.84,362.96M100.63,362.12L100.27,362.96M175.82,362.12L175.87,362.96M233.24,362.12L233.34,362.96M272.63,362.12L272.47,362.96M362.12,362.12L362.96,362.96M362.96,362.96L362.96,362.96M78.84,362.96L79.04,363.47M79.18,363.80L79.04,363.47M100.04,363.59L99.96,363.80M100.27,362.96L100.04,363.59M175.87,362.96L175.91,363.80M233.34,362.96L233.42,363.80M272.47,362.96L272.33,363.80M362.96,362.96L363.80,363.80M363.80,363.80L363.80,363.80M79.18,363.80L79.47,364.64M99.96,363.80L99.69,364.64M175.91,363.80L175.94,364.64M233.42,363.80L233.48,364.64M272.24,364.42L272.21,364.64M272.33,363.80L272.24,364.42M363.80,363.80L364.64,364.64M364.64,364.64L364.64,364.64M79.47,364.64L79.70,365.48M99.69,364.64L99.47,365.48M175.94,364.64L175.97,365.48M233.48,364.64L233.53,365.48M272.21,364.64L272.12,365.48M364.64,364.64L365.48,365.48M365.48,365.48L365.48,365.48M79.70,365.48L79.86,366.32M99.47,365.48L99.32,366.32M175.97,365.48L175.99,366.32M233.53,365.48L233.57,366.32M272.12,365.48L272.05,366.32M365.48,365.48L366.32,366.32M366.32,366.32L366.32,366.32M79.86,366.32L79.88,366.45M79.97,367.16L79.88,366.45M99.32,366.32L99.23,367.16M175.99,366.32L176.00,367.16M233.57,366.32L233.59,367.16M272.05,366.32L272.01,367.16M366.32,366.32L367.16,367.16M367.16,367.16L367.16,367.16M79.97,367.16L80.00,368.00M99.23,367.16L99.20,368.00M176.00,367.16L176.00,368.00M233.59,367.16L233.60,368.00M233.60,368.00L233.60,368.00M272.01,367.16L272.00,368.00M367.16,367.16L368.00,368.00" stroke="#1a1a1a" stroke-width="0.3" stroke-linecap="round" fill="none"/>
</svg>