<svg width="1258" height="280" viewBox="0 0 1258 280" fill="none" xmlns="http://www.w3.org/2000/svg">
<path d="M132.431 272.24C106.514 272.24 83.6528 266.739 63.8481 255.736C44.0434 244.489 28.6398 228.719 17.6372 208.425C6.87905 187.887 1.5 164.17 1.5 137.275C1.5 111.113 6.7568 88.0074 17.2704 67.9582C28.0285 47.6645 43.3099 31.8941 63.1146 20.647C82.9193 9.39992 106.025 3.77637 132.431 3.77637C166.172 3.77637 194.046 13.0675 216.051 31.6496C238.301 49.9873 252.237 75.6601 257.861 108.668H205.782C202.114 90.3302 193.679 75.7823 180.476 65.0242C167.273 54.2661 151.258 48.887 132.431 48.887C108.225 48.887 89.0318 56.9556 74.8507 73.0928C60.6696 88.9854 53.579 110.379 53.579 137.275C53.579 164.903 60.6696 186.786 74.8507 202.924C89.0318 219.061 108.225 227.129 132.431 227.129C151.747 227.129 167.884 221.872 180.842 211.359C193.801 200.601 202.114 185.808 205.782 166.982H257.861C251.748 200.479 237.689 226.396 215.684 244.733C193.923 263.071 166.172 272.24 132.431 272.24Z" fill="#0F0C0A"/>
<path d="M411.341 272.24C385.913 272.24 363.297 266.739 343.492 255.736C323.932 244.733 308.65 229.085 297.648 208.792C286.645 188.253 281.144 164.414 281.144 137.275C281.144 111.113 286.401 88.0074 296.914 67.9582C307.672 47.6645 322.831 31.8941 342.392 20.647C362.196 9.39992 385.18 3.77637 411.341 3.77637C437.014 3.77637 459.753 9.27767 479.557 20.2803C499.362 31.2829 514.766 46.931 525.768 67.2247C536.771 87.2739 542.272 110.624 542.272 137.275C542.272 163.681 536.893 187.153 526.135 207.691C515.622 227.985 500.462 243.878 480.658 255.369C460.853 266.616 437.748 272.24 411.341 272.24ZM411.341 227.129C427.478 227.129 441.537 223.462 453.518 216.127C465.499 208.792 474.667 198.4 481.024 184.953C487.626 171.26 490.927 155.368 490.927 137.275C490.927 110.379 483.714 88.9854 469.288 73.0928C455.107 56.9556 435.792 48.887 411.341 48.887C395.449 48.887 381.512 52.5546 369.531 59.8897C357.795 66.9802 348.626 77.2493 342.025 90.6969C335.668 103.9 332.489 119.426 332.489 137.275C332.489 155.368 335.668 171.26 342.025 184.953C348.626 198.4 357.795 208.792 369.531 216.127C381.512 223.462 395.449 227.129 411.341 227.129Z" fill="#0F0C0A"/>
<path d="M1256.42 266.372H1077.12V9.64429H1127.73V220.894H1256.42V266.372Z" fill="#0F0C0A"/>
<path d="M665.597 140.612L682.387 188.793L699.177 140.612L767.302 9.64453H824.989L682.387 278.776L539.375 9.64453H597.969L665.597 140.612Z" fill="#0F0C0A"/>
<path d="M1051.46 266.371H994.026L922.083 133.089L903.135 87.2227L883.708 135.246L812.621 266.371H754.808L903.135 0.015625V0L1051.46 266.371Z" fill="#0F0C0A"/>
</svg>
